G75*
G70*
%OFA0B0*%
%FSLAX24Y24*%
%IPPOS*%
%LPD*%
%AMOC8*
5,1,8,0,0,1.08239X$1,22.5*
%
%ADD10C,0.0000*%
%ADD11C,0.0100*%
%ADD12C,0.0090*%
%ADD13C,0.0080*%
%ADD14R,0.1535X0.0384*%
%ADD15C,0.0040*%
%ADD16C,0.0060*%
%ADD17C,0.0030*%
%ADD18C,0.0050*%
%ADD19C,0.0197*%
%ADD20C,0.0295*%
%ADD21C,0.0001*%
D10*
X000657Y001756D02*
X073157Y001756D01*
X073157Y020256D01*
X000657Y020256D01*
X000657Y001756D01*
X001316Y003006D02*
X001318Y003060D01*
X001326Y003113D01*
X001338Y003165D01*
X001355Y003217D01*
X001376Y003266D01*
X001402Y003313D01*
X001432Y003358D01*
X001466Y003399D01*
X001504Y003438D01*
X001545Y003473D01*
X001589Y003504D01*
X001635Y003531D01*
X001684Y003553D01*
X001735Y003571D01*
X001787Y003585D01*
X001840Y003593D01*
X001894Y003597D01*
X001947Y003596D01*
X002001Y003590D01*
X002053Y003579D01*
X002105Y003563D01*
X002155Y003543D01*
X002202Y003518D01*
X002248Y003489D01*
X002290Y003456D01*
X002330Y003419D01*
X002365Y003379D01*
X002397Y003336D01*
X002425Y003290D01*
X002449Y003241D01*
X002468Y003191D01*
X002483Y003139D01*
X002492Y003086D01*
X002497Y003033D01*
X002497Y002979D01*
X002492Y002926D01*
X002483Y002873D01*
X002468Y002821D01*
X002449Y002771D01*
X002425Y002722D01*
X002397Y002676D01*
X002365Y002633D01*
X002330Y002593D01*
X002290Y002556D01*
X002248Y002523D01*
X002203Y002494D01*
X002155Y002469D01*
X002105Y002449D01*
X002053Y002433D01*
X002001Y002422D01*
X001947Y002416D01*
X001894Y002415D01*
X001840Y002419D01*
X001787Y002427D01*
X001735Y002441D01*
X001684Y002459D01*
X001635Y002481D01*
X001589Y002508D01*
X001545Y002539D01*
X001504Y002574D01*
X001466Y002613D01*
X001432Y002654D01*
X001402Y002699D01*
X001376Y002746D01*
X001355Y002795D01*
X001338Y002847D01*
X001326Y002899D01*
X001318Y002952D01*
X001316Y003006D01*
X001316Y019006D02*
X001318Y019060D01*
X001326Y019113D01*
X001338Y019165D01*
X001355Y019217D01*
X001376Y019266D01*
X001402Y019313D01*
X001432Y019358D01*
X001466Y019399D01*
X001504Y019438D01*
X001545Y019473D01*
X001589Y019504D01*
X001635Y019531D01*
X001684Y019553D01*
X001735Y019571D01*
X001787Y019585D01*
X001840Y019593D01*
X001894Y019597D01*
X001947Y019596D01*
X002001Y019590D01*
X002053Y019579D01*
X002105Y019563D01*
X002155Y019543D01*
X002202Y019518D01*
X002248Y019489D01*
X002290Y019456D01*
X002330Y019419D01*
X002365Y019379D01*
X002397Y019336D01*
X002425Y019290D01*
X002449Y019241D01*
X002468Y019191D01*
X002483Y019139D01*
X002492Y019086D01*
X002497Y019033D01*
X002497Y018979D01*
X002492Y018926D01*
X002483Y018873D01*
X002468Y018821D01*
X002449Y018771D01*
X002425Y018722D01*
X002397Y018676D01*
X002365Y018633D01*
X002330Y018593D01*
X002290Y018556D01*
X002248Y018523D01*
X002203Y018494D01*
X002155Y018469D01*
X002105Y018449D01*
X002053Y018433D01*
X002001Y018422D01*
X001947Y018416D01*
X001894Y018415D01*
X001840Y018419D01*
X001787Y018427D01*
X001735Y018441D01*
X001684Y018459D01*
X001635Y018481D01*
X001589Y018508D01*
X001545Y018539D01*
X001504Y018574D01*
X001466Y018613D01*
X001432Y018654D01*
X001402Y018699D01*
X001376Y018746D01*
X001355Y018795D01*
X001338Y018847D01*
X001326Y018899D01*
X001318Y018952D01*
X001316Y019006D01*
X071316Y019006D02*
X071318Y019060D01*
X071326Y019113D01*
X071338Y019165D01*
X071355Y019217D01*
X071376Y019266D01*
X071402Y019313D01*
X071432Y019358D01*
X071466Y019399D01*
X071504Y019438D01*
X071545Y019473D01*
X071589Y019504D01*
X071635Y019531D01*
X071684Y019553D01*
X071735Y019571D01*
X071787Y019585D01*
X071840Y019593D01*
X071894Y019597D01*
X071947Y019596D01*
X072001Y019590D01*
X072053Y019579D01*
X072105Y019563D01*
X072155Y019543D01*
X072202Y019518D01*
X072248Y019489D01*
X072290Y019456D01*
X072330Y019419D01*
X072365Y019379D01*
X072397Y019336D01*
X072425Y019290D01*
X072449Y019241D01*
X072468Y019191D01*
X072483Y019139D01*
X072492Y019086D01*
X072497Y019033D01*
X072497Y018979D01*
X072492Y018926D01*
X072483Y018873D01*
X072468Y018821D01*
X072449Y018771D01*
X072425Y018722D01*
X072397Y018676D01*
X072365Y018633D01*
X072330Y018593D01*
X072290Y018556D01*
X072248Y018523D01*
X072203Y018494D01*
X072155Y018469D01*
X072105Y018449D01*
X072053Y018433D01*
X072001Y018422D01*
X071947Y018416D01*
X071894Y018415D01*
X071840Y018419D01*
X071787Y018427D01*
X071735Y018441D01*
X071684Y018459D01*
X071635Y018481D01*
X071589Y018508D01*
X071545Y018539D01*
X071504Y018574D01*
X071466Y018613D01*
X071432Y018654D01*
X071402Y018699D01*
X071376Y018746D01*
X071355Y018795D01*
X071338Y018847D01*
X071326Y018899D01*
X071318Y018952D01*
X071316Y019006D01*
X071316Y003006D02*
X071318Y003060D01*
X071326Y003113D01*
X071338Y003165D01*
X071355Y003217D01*
X071376Y003266D01*
X071402Y003313D01*
X071432Y003358D01*
X071466Y003399D01*
X071504Y003438D01*
X071545Y003473D01*
X071589Y003504D01*
X071635Y003531D01*
X071684Y003553D01*
X071735Y003571D01*
X071787Y003585D01*
X071840Y003593D01*
X071894Y003597D01*
X071947Y003596D01*
X072001Y003590D01*
X072053Y003579D01*
X072105Y003563D01*
X072155Y003543D01*
X072202Y003518D01*
X072248Y003489D01*
X072290Y003456D01*
X072330Y003419D01*
X072365Y003379D01*
X072397Y003336D01*
X072425Y003290D01*
X072449Y003241D01*
X072468Y003191D01*
X072483Y003139D01*
X072492Y003086D01*
X072497Y003033D01*
X072497Y002979D01*
X072492Y002926D01*
X072483Y002873D01*
X072468Y002821D01*
X072449Y002771D01*
X072425Y002722D01*
X072397Y002676D01*
X072365Y002633D01*
X072330Y002593D01*
X072290Y002556D01*
X072248Y002523D01*
X072203Y002494D01*
X072155Y002469D01*
X072105Y002449D01*
X072053Y002433D01*
X072001Y002422D01*
X071947Y002416D01*
X071894Y002415D01*
X071840Y002419D01*
X071787Y002427D01*
X071735Y002441D01*
X071684Y002459D01*
X071635Y002481D01*
X071589Y002508D01*
X071545Y002539D01*
X071504Y002574D01*
X071466Y002613D01*
X071432Y002654D01*
X071402Y002699D01*
X071376Y002746D01*
X071355Y002795D01*
X071338Y002847D01*
X071326Y002899D01*
X071318Y002952D01*
X071316Y003006D01*
D11*
X070891Y003923D02*
X068923Y003923D01*
X068923Y006088D01*
X070498Y006088D01*
X070891Y005695D01*
X070891Y003923D01*
X072907Y002006D02*
X066907Y002006D01*
X066907Y008006D01*
X072907Y008006D01*
X072907Y014006D01*
X066907Y014006D01*
X066907Y008006D01*
X060907Y008006D01*
X060907Y002006D01*
X066907Y002006D01*
X060907Y002006D02*
X054907Y002006D01*
X054907Y008006D01*
X060907Y008006D01*
X060907Y014006D01*
X066907Y014006D01*
X066907Y020006D01*
X072907Y020006D01*
X072907Y014006D01*
X070891Y011695D02*
X070498Y012088D01*
X068923Y012088D01*
X068923Y009923D01*
X070891Y009923D01*
X070891Y011695D01*
X064891Y011695D02*
X064891Y009923D01*
X062923Y009923D01*
X062923Y012088D01*
X064498Y012088D01*
X064891Y011695D01*
X058891Y011695D02*
X058891Y009923D01*
X056923Y009923D01*
X056923Y012088D01*
X058498Y012088D01*
X058891Y011695D01*
X060907Y014006D02*
X054907Y014006D01*
X054907Y008006D01*
X048907Y008006D02*
X042907Y008006D01*
X042907Y002006D01*
X048907Y002006D01*
X048907Y008006D01*
X048907Y014006D01*
X042907Y014006D01*
X042907Y008006D01*
X036907Y008006D01*
X036907Y002006D01*
X042907Y002006D01*
X037407Y003006D02*
X030407Y003006D01*
X030407Y005006D01*
X037407Y005006D01*
X037407Y003006D01*
X038923Y003923D02*
X038923Y006088D01*
X040498Y006088D01*
X040891Y005695D01*
X040891Y003923D01*
X038923Y003923D01*
X044923Y003923D02*
X044923Y006088D01*
X046498Y006088D01*
X046891Y005695D01*
X046891Y003923D01*
X044923Y003923D01*
X056923Y003923D02*
X056923Y006088D01*
X058498Y006088D01*
X058891Y005695D01*
X058891Y003923D01*
X056923Y003923D01*
X062923Y003923D02*
X062923Y006088D01*
X064498Y006088D01*
X064891Y005695D01*
X064891Y003923D01*
X062923Y003923D01*
X072907Y002006D02*
X072907Y008006D01*
X060907Y014006D02*
X060907Y020006D01*
X066907Y020006D01*
X060907Y020006D02*
X054907Y020006D01*
X054907Y014006D01*
X048907Y014006D02*
X048907Y020006D01*
X042907Y020006D01*
X042907Y014006D01*
X036907Y014006D01*
X036907Y008006D01*
X030907Y008006D02*
X024907Y008006D01*
X024907Y002006D01*
X030907Y002006D01*
X030907Y008006D01*
X030907Y014006D01*
X024907Y014006D01*
X024907Y008006D01*
X018907Y008006D01*
X018907Y002006D01*
X024907Y002006D01*
X018907Y002006D02*
X012907Y002006D01*
X012907Y008006D01*
X018907Y008006D01*
X018907Y014006D01*
X024907Y014006D01*
X024907Y020006D01*
X030907Y020006D01*
X030907Y014006D01*
X036907Y014006D02*
X036907Y020006D01*
X042907Y020006D01*
X044923Y018088D02*
X046498Y018088D01*
X046891Y017695D01*
X046891Y015923D01*
X044923Y015923D01*
X044923Y018088D01*
X040891Y017695D02*
X040498Y018088D01*
X038923Y018088D01*
X038923Y015923D01*
X040891Y015923D01*
X040891Y017695D01*
X035407Y018506D02*
X035407Y016506D01*
X032407Y016506D01*
X032407Y018506D01*
X035407Y018506D01*
X028891Y017695D02*
X028498Y018088D01*
X026923Y018088D01*
X026923Y015923D01*
X028891Y015923D01*
X028891Y017695D01*
X022891Y017695D02*
X022891Y015923D01*
X020923Y015923D01*
X020923Y018088D01*
X022498Y018088D01*
X022891Y017695D01*
X016891Y017695D02*
X016891Y015923D01*
X014923Y015923D01*
X014923Y018088D01*
X016498Y018088D01*
X016891Y017695D01*
X018907Y020006D02*
X012907Y020006D01*
X012907Y014006D01*
X018907Y014006D01*
X018907Y020006D01*
X024907Y020006D01*
X006907Y020006D02*
X000907Y020006D01*
X000907Y014006D01*
X006907Y014006D01*
X006907Y020006D01*
X004891Y017695D02*
X004498Y018088D01*
X002923Y018088D01*
X002923Y015923D01*
X004891Y015923D01*
X004891Y017695D01*
X006907Y014006D02*
X006907Y008006D01*
X000907Y008006D01*
X000907Y002006D01*
X006907Y002006D01*
X006907Y008006D01*
X000907Y008006D02*
X000907Y014006D01*
X002923Y012088D02*
X004498Y012088D01*
X004891Y011695D01*
X004891Y009923D01*
X002923Y009923D01*
X002923Y012088D01*
X012907Y014006D02*
X012907Y008006D01*
X014923Y009923D02*
X014923Y012088D01*
X016498Y012088D01*
X016891Y011695D01*
X016891Y009923D01*
X014923Y009923D01*
X020923Y009923D02*
X020923Y012088D01*
X022498Y012088D01*
X022891Y011695D01*
X022891Y009923D01*
X020923Y009923D01*
X026923Y009923D02*
X026923Y012088D01*
X028498Y012088D01*
X028891Y011695D01*
X028891Y009923D01*
X026923Y009923D01*
X038923Y009923D02*
X038923Y012088D01*
X040498Y012088D01*
X040891Y011695D01*
X040891Y009923D01*
X038923Y009923D01*
X044923Y009923D02*
X044923Y012088D01*
X046498Y012088D01*
X046891Y011695D01*
X046891Y009923D01*
X044923Y009923D01*
X028891Y005695D02*
X028498Y006088D01*
X026923Y006088D01*
X026923Y003923D01*
X028891Y003923D01*
X028891Y005695D01*
X022891Y005695D02*
X022498Y006088D01*
X020923Y006088D01*
X020923Y003923D01*
X022891Y003923D01*
X022891Y005695D01*
X016891Y005695D02*
X016891Y003923D01*
X014923Y003923D01*
X014923Y006088D01*
X016498Y006088D01*
X016891Y005695D01*
X012657Y004006D02*
X011907Y004006D01*
X011907Y002006D01*
X010157Y002006D01*
X010157Y004006D01*
X011907Y004006D01*
X012657Y004006D02*
X012657Y002006D01*
X011907Y002006D01*
X004891Y003923D02*
X002923Y003923D01*
X002923Y006088D01*
X004498Y006088D01*
X004891Y005695D01*
X004891Y003923D01*
X056923Y015923D02*
X056923Y018088D01*
X058498Y018088D01*
X058891Y017695D01*
X058891Y015923D01*
X056923Y015923D01*
X062923Y015923D02*
X062923Y018088D01*
X064498Y018088D01*
X064891Y017695D01*
X064891Y015923D01*
X062923Y015923D01*
X068923Y015923D02*
X068923Y018088D01*
X070498Y018088D01*
X070891Y017695D01*
X070891Y015923D01*
X068923Y015923D01*
D12*
X068771Y013259D02*
X068771Y012688D01*
X069151Y012688D01*
X069379Y012688D02*
X069759Y012688D01*
X069986Y012688D02*
X070272Y012688D01*
X070367Y012784D01*
X070367Y013164D01*
X070272Y013259D01*
X069986Y013259D01*
X069986Y012688D01*
X069379Y012688D02*
X069379Y013259D01*
X069759Y013259D01*
X069569Y012974D02*
X069379Y012974D01*
X070594Y013164D02*
X070689Y013259D01*
X070879Y013259D01*
X070974Y013164D01*
X070974Y013069D01*
X070594Y012688D01*
X070974Y012688D01*
X064974Y012784D02*
X064879Y012688D01*
X064689Y012688D01*
X064594Y012784D01*
X064594Y012974D02*
X064784Y013069D01*
X064879Y013069D01*
X064974Y012974D01*
X064974Y012784D01*
X064594Y012974D02*
X064594Y013259D01*
X064974Y013259D01*
X064367Y013164D02*
X064272Y013259D01*
X063986Y013259D01*
X063986Y012688D01*
X064272Y012688D01*
X064367Y012784D01*
X064367Y013164D01*
X063759Y013259D02*
X063379Y013259D01*
X063379Y012688D01*
X063759Y012688D01*
X063151Y012688D02*
X062771Y012688D01*
X062771Y013259D01*
X063379Y012974D02*
X063569Y012974D01*
X058974Y013069D02*
X058879Y012974D01*
X058689Y012974D01*
X058594Y013069D01*
X058594Y013164D01*
X058689Y013259D01*
X058879Y013259D01*
X058974Y013164D01*
X058974Y013069D01*
X058879Y012974D02*
X058974Y012879D01*
X058974Y012784D01*
X058879Y012688D01*
X058689Y012688D01*
X058594Y012784D01*
X058594Y012879D01*
X058689Y012974D01*
X058367Y013164D02*
X058272Y013259D01*
X057986Y013259D01*
X057986Y012688D01*
X058272Y012688D01*
X058367Y012784D01*
X058367Y013164D01*
X057759Y013259D02*
X057379Y013259D01*
X057379Y012688D01*
X057759Y012688D01*
X057151Y012688D02*
X056771Y012688D01*
X056771Y013259D01*
X057379Y012974D02*
X057569Y012974D01*
X047332Y012688D02*
X046952Y012688D01*
X047142Y012688D02*
X047142Y013259D01*
X046952Y013069D01*
X046534Y013259D02*
X046534Y012688D01*
X046344Y012688D02*
X046724Y012688D01*
X046117Y012784D02*
X046117Y013164D01*
X046022Y013259D01*
X045736Y013259D01*
X045736Y012688D01*
X046022Y012688D01*
X046117Y012784D01*
X046344Y013069D02*
X046534Y013259D01*
X045509Y013259D02*
X045129Y013259D01*
X045129Y012688D01*
X045509Y012688D01*
X044901Y012688D02*
X044521Y012688D01*
X044521Y013259D01*
X045129Y012974D02*
X045319Y012974D01*
X041332Y012974D02*
X040952Y012974D01*
X041237Y013259D01*
X041237Y012688D01*
X040724Y012688D02*
X040344Y012688D01*
X040534Y012688D02*
X040534Y013259D01*
X040344Y013069D01*
X040117Y013164D02*
X040022Y013259D01*
X039736Y013259D01*
X039736Y012688D01*
X040022Y012688D01*
X040117Y012784D01*
X040117Y013164D01*
X039509Y013259D02*
X039129Y013259D01*
X039129Y012688D01*
X039509Y012688D01*
X038901Y012688D02*
X038521Y012688D01*
X038521Y013259D01*
X039129Y012974D02*
X039319Y012974D01*
X029332Y013164D02*
X028952Y012784D01*
X028952Y012688D01*
X028724Y012688D02*
X028344Y012688D01*
X028534Y012688D02*
X028534Y013259D01*
X028344Y013069D01*
X028117Y013164D02*
X028022Y013259D01*
X027736Y013259D01*
X027736Y012688D01*
X028022Y012688D01*
X028117Y012784D01*
X028117Y013164D01*
X027509Y013259D02*
X027129Y013259D01*
X027129Y012688D01*
X027509Y012688D01*
X026901Y012688D02*
X026521Y012688D01*
X026521Y013259D01*
X027129Y012974D02*
X027319Y012974D01*
X028952Y013259D02*
X029332Y013259D01*
X029332Y013164D01*
X023332Y013164D02*
X022952Y012784D01*
X023047Y012688D01*
X023237Y012688D01*
X023332Y012784D01*
X023332Y013164D01*
X023237Y013259D01*
X023047Y013259D01*
X022952Y013164D01*
X022952Y012784D01*
X022724Y012688D02*
X022344Y012688D01*
X022724Y013069D01*
X022724Y013164D01*
X022629Y013259D01*
X022439Y013259D01*
X022344Y013164D01*
X022117Y013164D02*
X022117Y012784D01*
X022022Y012688D01*
X021736Y012688D01*
X021736Y013259D01*
X022022Y013259D01*
X022117Y013164D01*
X021509Y013259D02*
X021129Y013259D01*
X021129Y012688D01*
X021509Y012688D01*
X020901Y012688D02*
X020521Y012688D01*
X020521Y013259D01*
X021129Y012974D02*
X021319Y012974D01*
X017332Y012879D02*
X017332Y012784D01*
X017237Y012688D01*
X017047Y012688D01*
X016952Y012784D01*
X016724Y012688D02*
X016344Y012688D01*
X016724Y013069D01*
X016724Y013164D01*
X016629Y013259D01*
X016439Y013259D01*
X016344Y013164D01*
X016117Y013164D02*
X016117Y012784D01*
X016022Y012688D01*
X015736Y012688D01*
X015736Y013259D01*
X016022Y013259D01*
X016117Y013164D01*
X015509Y013259D02*
X015129Y013259D01*
X015129Y012688D01*
X015509Y012688D01*
X014901Y012688D02*
X014521Y012688D01*
X014521Y013259D01*
X015129Y012974D02*
X015319Y012974D01*
X016952Y013164D02*
X017047Y013259D01*
X017237Y013259D01*
X017332Y013164D01*
X017332Y013069D01*
X017237Y012974D01*
X017332Y012879D01*
X017237Y012974D02*
X017142Y012974D01*
X005332Y012879D02*
X005237Y012974D01*
X004952Y012974D01*
X004952Y012784D01*
X005047Y012688D01*
X005237Y012688D01*
X005332Y012784D01*
X005332Y012879D01*
X005142Y013164D02*
X004952Y012974D01*
X004724Y013069D02*
X004724Y013164D01*
X004629Y013259D01*
X004439Y013259D01*
X004344Y013164D01*
X004117Y013164D02*
X004022Y013259D01*
X003736Y013259D01*
X003736Y012688D01*
X004022Y012688D01*
X004117Y012784D01*
X004117Y013164D01*
X004344Y012688D02*
X004724Y013069D01*
X005142Y013164D02*
X005332Y013259D01*
X004724Y012688D02*
X004344Y012688D01*
X003509Y012688D02*
X003129Y012688D01*
X003129Y013259D01*
X003509Y013259D01*
X003319Y012974D02*
X003129Y012974D01*
X002521Y013259D02*
X002521Y012688D01*
X002901Y012688D01*
X014521Y007259D02*
X014521Y006688D01*
X014901Y006688D01*
X015129Y006688D02*
X015509Y006688D01*
X015736Y006688D02*
X016022Y006688D01*
X016117Y006784D01*
X016117Y007164D01*
X016022Y007259D01*
X015736Y007259D01*
X015736Y006688D01*
X015129Y006688D02*
X015129Y007259D01*
X015509Y007259D01*
X015319Y006974D02*
X015129Y006974D01*
X016344Y007164D02*
X016439Y007259D01*
X016629Y007259D01*
X016724Y007164D01*
X016724Y007069D01*
X016344Y006688D01*
X016724Y006688D01*
X016952Y006688D02*
X017332Y007069D01*
X017332Y007164D01*
X017237Y007259D01*
X017047Y007259D01*
X016952Y007164D01*
X016952Y006688D02*
X017332Y006688D01*
X020521Y006688D02*
X020901Y006688D01*
X021129Y006688D02*
X021509Y006688D01*
X021736Y006688D02*
X022022Y006688D01*
X022117Y006784D01*
X022117Y007164D01*
X022022Y007259D01*
X021736Y007259D01*
X021736Y006688D01*
X021129Y006688D02*
X021129Y007259D01*
X021509Y007259D01*
X021319Y006974D02*
X021129Y006974D01*
X020521Y007259D02*
X020521Y006688D01*
X022344Y006688D02*
X022724Y006688D01*
X022534Y006688D02*
X022534Y007259D01*
X022344Y007069D01*
X022952Y007069D02*
X022952Y007164D01*
X023047Y007259D01*
X023237Y007259D01*
X023332Y007164D01*
X023332Y006784D01*
X023237Y006688D01*
X023047Y006688D01*
X022952Y006784D01*
X023047Y006974D02*
X023332Y006974D01*
X023047Y006974D02*
X022952Y007069D01*
X026521Y007259D02*
X026521Y006688D01*
X026901Y006688D01*
X027129Y006688D02*
X027509Y006688D01*
X027736Y006688D02*
X028022Y006688D01*
X028117Y006784D01*
X028117Y007164D01*
X028022Y007259D01*
X027736Y007259D01*
X027736Y006688D01*
X027129Y006688D02*
X027129Y007259D01*
X027509Y007259D01*
X027319Y006974D02*
X027129Y006974D01*
X028344Y007069D02*
X028534Y007259D01*
X028534Y006688D01*
X028344Y006688D02*
X028724Y006688D01*
X028952Y006784D02*
X029047Y006688D01*
X029237Y006688D01*
X029332Y006784D01*
X029332Y006879D01*
X029237Y006974D01*
X028952Y006974D01*
X028952Y006784D01*
X028952Y006974D02*
X029142Y007164D01*
X029332Y007259D01*
X038521Y007259D02*
X038521Y006688D01*
X038901Y006688D01*
X039129Y006688D02*
X039509Y006688D01*
X039736Y006688D02*
X040022Y006688D01*
X040117Y006784D01*
X040117Y007164D01*
X040022Y007259D01*
X039736Y007259D01*
X039736Y006688D01*
X039129Y006688D02*
X039129Y007259D01*
X039509Y007259D01*
X039319Y006974D02*
X039129Y006974D01*
X040344Y007069D02*
X040534Y007259D01*
X040534Y006688D01*
X040344Y006688D02*
X040724Y006688D01*
X040952Y006784D02*
X041047Y006688D01*
X041237Y006688D01*
X041332Y006784D01*
X041332Y006879D01*
X041237Y006974D01*
X041142Y006974D01*
X041237Y006974D02*
X041332Y007069D01*
X041332Y007164D01*
X041237Y007259D01*
X041047Y007259D01*
X040952Y007164D01*
X044521Y007259D02*
X044521Y006688D01*
X044901Y006688D01*
X045129Y006688D02*
X045509Y006688D01*
X045736Y006688D02*
X046022Y006688D01*
X046117Y006784D01*
X046117Y007164D01*
X046022Y007259D01*
X045736Y007259D01*
X045736Y006688D01*
X045129Y006688D02*
X045129Y007259D01*
X045509Y007259D01*
X045319Y006974D02*
X045129Y006974D01*
X046344Y007069D02*
X046534Y007259D01*
X046534Y006688D01*
X046344Y006688D02*
X046724Y006688D01*
X046952Y006784D02*
X047047Y006688D01*
X047237Y006688D01*
X047332Y006784D01*
X047332Y007164D01*
X046952Y006784D01*
X046952Y007164D01*
X047047Y007259D01*
X047237Y007259D01*
X047332Y007164D01*
X056771Y007259D02*
X056771Y006688D01*
X057151Y006688D01*
X057379Y006688D02*
X057759Y006688D01*
X057986Y006688D02*
X058272Y006688D01*
X058367Y006784D01*
X058367Y007164D01*
X058272Y007259D01*
X057986Y007259D01*
X057986Y006688D01*
X057379Y006688D02*
X057379Y007259D01*
X057759Y007259D01*
X057569Y006974D02*
X057379Y006974D01*
X058594Y006784D02*
X058594Y006688D01*
X058594Y006784D02*
X058974Y007164D01*
X058974Y007259D01*
X058594Y007259D01*
X062771Y007259D02*
X062771Y006688D01*
X063151Y006688D01*
X063379Y006688D02*
X063759Y006688D01*
X063986Y006688D02*
X064272Y006688D01*
X064367Y006784D01*
X064367Y007164D01*
X064272Y007259D01*
X063986Y007259D01*
X063986Y006688D01*
X063379Y006688D02*
X063379Y007259D01*
X063759Y007259D01*
X063569Y006974D02*
X063379Y006974D01*
X064594Y006974D02*
X064974Y006974D01*
X064879Y007259D02*
X064594Y006974D01*
X064879Y006688D02*
X064879Y007259D01*
X068771Y007259D02*
X068771Y006688D01*
X069151Y006688D01*
X069379Y006688D02*
X069759Y006688D01*
X069986Y006688D02*
X070272Y006688D01*
X070367Y006784D01*
X070367Y007164D01*
X070272Y007259D01*
X069986Y007259D01*
X069986Y006688D01*
X069379Y006688D02*
X069379Y007259D01*
X069759Y007259D01*
X069569Y006974D02*
X069379Y006974D01*
X070594Y007069D02*
X070784Y007259D01*
X070784Y006688D01*
X070594Y006688D02*
X070974Y006688D01*
X070879Y018688D02*
X070689Y018688D01*
X070594Y018784D01*
X070367Y018784D02*
X070367Y019164D01*
X070272Y019259D01*
X069986Y019259D01*
X069986Y018688D01*
X070272Y018688D01*
X070367Y018784D01*
X070784Y018974D02*
X070879Y018974D01*
X070974Y018879D01*
X070974Y018784D01*
X070879Y018688D01*
X070879Y018974D02*
X070974Y019069D01*
X070974Y019164D01*
X070879Y019259D01*
X070689Y019259D01*
X070594Y019164D01*
X069759Y019259D02*
X069379Y019259D01*
X069379Y018688D01*
X069759Y018688D01*
X069569Y018974D02*
X069379Y018974D01*
X069151Y018688D02*
X068771Y018688D01*
X068771Y019259D01*
X064974Y019259D02*
X064784Y019164D01*
X064594Y018974D01*
X064879Y018974D01*
X064974Y018879D01*
X064974Y018784D01*
X064879Y018688D01*
X064689Y018688D01*
X064594Y018784D01*
X064594Y018974D01*
X064367Y018784D02*
X064367Y019164D01*
X064272Y019259D01*
X063986Y019259D01*
X063986Y018688D01*
X064272Y018688D01*
X064367Y018784D01*
X063759Y018688D02*
X063379Y018688D01*
X063379Y019259D01*
X063759Y019259D01*
X062771Y019259D02*
X062771Y018688D01*
X063151Y018688D01*
X063379Y018974D02*
X063569Y018974D01*
X058974Y018974D02*
X058689Y018974D01*
X058594Y019069D01*
X058594Y019164D01*
X058689Y019259D01*
X058879Y019259D01*
X058974Y019164D01*
X058974Y018784D01*
X058879Y018688D01*
X058689Y018688D01*
X058594Y018784D01*
X058367Y018784D02*
X058367Y019164D01*
X058272Y019259D01*
X057986Y019259D01*
X057986Y018688D01*
X058272Y018688D01*
X058367Y018784D01*
X057759Y018688D02*
X057379Y018688D01*
X057379Y019259D01*
X057759Y019259D01*
X057569Y018974D02*
X057379Y018974D01*
X057151Y018688D02*
X056771Y018688D01*
X056771Y019259D01*
X047332Y019164D02*
X047237Y019259D01*
X047047Y019259D01*
X046952Y019164D01*
X047332Y019164D02*
X047332Y019069D01*
X046952Y018688D01*
X047332Y018688D01*
X046724Y018688D02*
X046344Y018688D01*
X046534Y018688D02*
X046534Y019259D01*
X046344Y019069D01*
X046117Y019164D02*
X046022Y019259D01*
X045736Y019259D01*
X045736Y018688D01*
X046022Y018688D01*
X046117Y018784D01*
X046117Y019164D01*
X045509Y019259D02*
X045129Y019259D01*
X045129Y018688D01*
X045509Y018688D01*
X045319Y018974D02*
X045129Y018974D01*
X044901Y018688D02*
X044521Y018688D01*
X044521Y019259D01*
X041332Y019259D02*
X040952Y019259D01*
X040952Y018974D01*
X041142Y019069D01*
X041237Y019069D01*
X041332Y018974D01*
X041332Y018784D01*
X041237Y018688D01*
X041047Y018688D01*
X040952Y018784D01*
X040724Y018688D02*
X040344Y018688D01*
X040534Y018688D02*
X040534Y019259D01*
X040344Y019069D01*
X040117Y019164D02*
X040022Y019259D01*
X039736Y019259D01*
X039736Y018688D01*
X040022Y018688D01*
X040117Y018784D01*
X040117Y019164D01*
X039509Y019259D02*
X039129Y019259D01*
X039129Y018688D01*
X039509Y018688D01*
X039319Y018974D02*
X039129Y018974D01*
X038901Y018688D02*
X038521Y018688D01*
X038521Y019259D01*
X029332Y019164D02*
X029332Y019069D01*
X029237Y018974D01*
X029047Y018974D01*
X028952Y019069D01*
X028952Y019164D01*
X029047Y019259D01*
X029237Y019259D01*
X029332Y019164D01*
X029237Y018974D02*
X029332Y018879D01*
X029332Y018784D01*
X029237Y018688D01*
X029047Y018688D01*
X028952Y018784D01*
X028952Y018879D01*
X029047Y018974D01*
X028724Y018688D02*
X028344Y018688D01*
X028534Y018688D02*
X028534Y019259D01*
X028344Y019069D01*
X028117Y019164D02*
X028022Y019259D01*
X027736Y019259D01*
X027736Y018688D01*
X028022Y018688D01*
X028117Y018784D01*
X028117Y019164D01*
X027509Y019259D02*
X027129Y019259D01*
X027129Y018688D01*
X027509Y018688D01*
X027319Y018974D02*
X027129Y018974D01*
X026901Y018688D02*
X026521Y018688D01*
X026521Y019259D01*
X023332Y018688D02*
X022952Y018688D01*
X023142Y018688D02*
X023142Y019259D01*
X022952Y019069D01*
X022724Y019069D02*
X022724Y019164D01*
X022629Y019259D01*
X022439Y019259D01*
X022344Y019164D01*
X022117Y019164D02*
X022022Y019259D01*
X021736Y019259D01*
X021736Y018688D01*
X022022Y018688D01*
X022117Y018784D01*
X022117Y019164D01*
X022344Y018688D02*
X022724Y019069D01*
X021509Y019259D02*
X021129Y019259D01*
X021129Y018688D01*
X021509Y018688D01*
X021319Y018974D02*
X021129Y018974D01*
X020901Y018688D02*
X020521Y018688D01*
X020521Y019259D01*
X022344Y018688D02*
X022724Y018688D01*
X017332Y018974D02*
X016952Y018974D01*
X017237Y019259D01*
X017237Y018688D01*
X016724Y018688D02*
X016344Y018688D01*
X016724Y019069D01*
X016724Y019164D01*
X016629Y019259D01*
X016439Y019259D01*
X016344Y019164D01*
X016117Y019164D02*
X016022Y019259D01*
X015736Y019259D01*
X015736Y018688D01*
X016022Y018688D01*
X016117Y018784D01*
X016117Y019164D01*
X015509Y019259D02*
X015129Y019259D01*
X015129Y018688D01*
X015509Y018688D01*
X015319Y018974D02*
X015129Y018974D01*
X014901Y018688D02*
X014521Y018688D01*
X014521Y019259D01*
X005582Y019259D02*
X005582Y019164D01*
X005202Y018784D01*
X005202Y018688D01*
X004974Y018688D02*
X004594Y018688D01*
X004974Y019069D01*
X004974Y019164D01*
X004879Y019259D01*
X004689Y019259D01*
X004594Y019164D01*
X004367Y019164D02*
X004272Y019259D01*
X003986Y019259D01*
X003986Y018688D01*
X004272Y018688D01*
X004367Y018784D01*
X004367Y019164D01*
X003759Y019259D02*
X003379Y019259D01*
X003379Y018688D01*
X003759Y018688D01*
X003569Y018974D02*
X003379Y018974D01*
X003151Y018688D02*
X002771Y018688D01*
X002771Y019259D01*
X005202Y019259D02*
X005582Y019259D01*
X005582Y003259D02*
X005202Y003259D01*
X005202Y002974D01*
X005392Y003069D01*
X005487Y003069D01*
X005582Y002974D01*
X005582Y002784D01*
X005487Y002688D01*
X005297Y002688D01*
X005202Y002784D01*
X004974Y002688D02*
X004594Y002688D01*
X004974Y003069D01*
X004974Y003164D01*
X004879Y003259D01*
X004689Y003259D01*
X004594Y003164D01*
X004367Y003164D02*
X004272Y003259D01*
X003986Y003259D01*
X003986Y002688D01*
X004272Y002688D01*
X004367Y002784D01*
X004367Y003164D01*
X003759Y003259D02*
X003379Y003259D01*
X003379Y002688D01*
X003759Y002688D01*
X003151Y002688D02*
X002771Y002688D01*
X002771Y003259D01*
X003379Y002974D02*
X003569Y002974D01*
D13*
X009139Y006248D02*
X010675Y006248D01*
X010675Y010264D01*
X009139Y010264D02*
X009139Y006248D01*
X037947Y004631D02*
X038140Y004438D01*
X037947Y004631D02*
X038527Y004631D01*
X038527Y004438D02*
X038527Y004825D01*
X038527Y004217D02*
X037947Y003830D01*
X037947Y004217D02*
X038527Y003830D01*
X051139Y006248D02*
X052675Y006248D01*
X052675Y010264D01*
X051139Y010264D02*
X051139Y006248D01*
D14*
X051907Y010111D03*
X009907Y010111D03*
D15*
X008774Y010852D02*
X008774Y010929D01*
X008697Y011006D01*
X008467Y011006D01*
X008467Y010852D01*
X008543Y010776D01*
X008697Y010776D01*
X008774Y010852D01*
X008620Y011159D02*
X008467Y011006D01*
X008620Y011159D02*
X008774Y011236D01*
X008313Y011159D02*
X008236Y011236D01*
X008083Y011236D01*
X008006Y011159D01*
X008006Y010852D01*
X008083Y010776D01*
X008236Y010776D01*
X008313Y010852D01*
X013406Y010086D02*
X013406Y009626D01*
X013406Y009779D02*
X013636Y009779D01*
X013713Y009856D01*
X013713Y010009D01*
X013636Y010086D01*
X013406Y010086D01*
X013867Y010086D02*
X013867Y009856D01*
X014020Y009933D01*
X014097Y009933D01*
X014174Y009856D01*
X014174Y009702D01*
X014097Y009626D01*
X013943Y009626D01*
X013867Y009702D01*
X013713Y009626D02*
X013560Y009779D01*
X013867Y010086D02*
X014174Y010086D01*
X012478Y008327D02*
X012401Y008404D01*
X012247Y008404D01*
X012171Y008327D01*
X012017Y008327D02*
X011941Y008404D01*
X011787Y008404D01*
X011710Y008327D01*
X011710Y008020D01*
X011787Y007943D01*
X011941Y007943D01*
X012017Y008020D01*
X012171Y007943D02*
X012478Y008250D01*
X012478Y008327D01*
X011557Y008404D02*
X011404Y008404D01*
X011480Y008404D02*
X011480Y007943D01*
X011404Y007943D02*
X011557Y007943D01*
X012171Y007943D02*
X012478Y007943D01*
X012484Y006082D02*
X011263Y006082D01*
X010830Y005649D01*
X012484Y005590D02*
X012484Y006082D01*
X012484Y004921D02*
X012484Y004429D01*
X011263Y004429D01*
X010830Y004862D01*
X006347Y003586D02*
X006117Y003356D01*
X006424Y003356D01*
X006347Y003126D02*
X006347Y003586D01*
X005963Y003509D02*
X005963Y003356D01*
X005886Y003279D01*
X005656Y003279D01*
X005656Y003126D02*
X005656Y003586D01*
X005886Y003586D01*
X005963Y003509D01*
X005810Y003279D02*
X005963Y003126D01*
X031177Y008432D02*
X031253Y008355D01*
X031560Y008355D01*
X031637Y008432D01*
X031637Y008585D01*
X031560Y008662D01*
X031560Y008815D02*
X031637Y008892D01*
X031637Y009045D01*
X031560Y009122D01*
X031484Y009122D01*
X031407Y009045D01*
X031407Y008969D01*
X031407Y009045D02*
X031330Y009122D01*
X031253Y009122D01*
X031177Y009045D01*
X031177Y008892D01*
X031253Y008815D01*
X031253Y008662D02*
X031177Y008585D01*
X031177Y008432D01*
X037427Y006659D02*
X037504Y006736D01*
X037657Y006736D01*
X037734Y006659D01*
X037887Y006736D02*
X037887Y006506D01*
X038041Y006583D01*
X038118Y006583D01*
X038194Y006506D01*
X038194Y006352D01*
X038118Y006276D01*
X037964Y006276D01*
X037887Y006352D01*
X037734Y006352D02*
X037657Y006276D01*
X037504Y006276D01*
X037427Y006352D01*
X037427Y006659D01*
X037887Y006736D02*
X038194Y006736D01*
X035368Y003486D02*
X035444Y003409D01*
X035444Y003333D01*
X035368Y003256D01*
X035214Y003256D01*
X035137Y003333D01*
X035137Y003409D01*
X035214Y003486D01*
X035368Y003486D01*
X035368Y003256D02*
X035444Y003179D01*
X035444Y003102D01*
X035368Y003026D01*
X035214Y003026D01*
X035137Y003102D01*
X035137Y003179D01*
X035214Y003256D01*
X034984Y003409D02*
X034907Y003486D01*
X034754Y003486D01*
X034677Y003409D01*
X034677Y003102D01*
X034754Y003026D01*
X034907Y003026D01*
X034984Y003102D01*
X053654Y007943D02*
X053807Y007943D01*
X053730Y007943D02*
X053730Y008404D01*
X053654Y008404D02*
X053807Y008404D01*
X053960Y008327D02*
X053960Y008020D01*
X054037Y007943D01*
X054191Y007943D01*
X054267Y008020D01*
X054421Y007943D02*
X054728Y007943D01*
X054574Y007943D02*
X054574Y008404D01*
X054421Y008250D01*
X054267Y008327D02*
X054191Y008404D01*
X054037Y008404D01*
X053960Y008327D01*
X055406Y009876D02*
X055406Y010336D01*
X055636Y010336D01*
X055713Y010259D01*
X055713Y010106D01*
X055636Y010029D01*
X055406Y010029D01*
X055560Y010029D02*
X055713Y009876D01*
X055867Y009952D02*
X055943Y009876D01*
X056097Y009876D01*
X056174Y009952D01*
X056174Y010029D01*
X056097Y010106D01*
X055867Y010106D01*
X055867Y009952D01*
X055867Y010106D02*
X056020Y010259D01*
X056174Y010336D01*
X050774Y011159D02*
X050467Y010852D01*
X050467Y010776D01*
X050313Y010852D02*
X050236Y010776D01*
X050083Y010776D01*
X050006Y010852D01*
X050006Y011159D01*
X050083Y011236D01*
X050236Y011236D01*
X050313Y011159D01*
X050467Y011236D02*
X050774Y011236D01*
X050774Y011159D01*
X053004Y013776D02*
X053157Y013776D01*
X053234Y013852D01*
X053387Y013776D02*
X053694Y013776D01*
X053541Y013776D02*
X053541Y014236D01*
X053387Y014083D01*
X053234Y014159D02*
X053157Y014236D01*
X053004Y014236D01*
X052927Y014159D01*
X052927Y013852D01*
X053004Y013776D01*
X052887Y015026D02*
X052887Y015256D01*
X052810Y015333D01*
X052503Y015333D01*
X052427Y015256D01*
X052427Y015026D01*
X052887Y015026D01*
X051387Y015102D02*
X051310Y015026D01*
X050927Y015026D01*
X051387Y015102D02*
X051387Y015256D01*
X051310Y015333D01*
X050927Y015333D01*
X051080Y015486D02*
X050927Y015639D01*
X051387Y015639D01*
X051387Y015486D02*
X051387Y015793D01*
X052427Y015716D02*
X052427Y015563D01*
X052503Y015486D01*
X052580Y015486D01*
X052657Y015563D01*
X052657Y015716D01*
X052734Y015793D01*
X052810Y015793D01*
X052887Y015716D01*
X052887Y015563D01*
X052810Y015486D01*
X052503Y015793D02*
X052427Y015716D01*
X052503Y015946D02*
X052427Y016023D01*
X052427Y016177D01*
X052503Y016253D01*
X052580Y016253D01*
X052657Y016177D01*
X052734Y016253D01*
X052810Y016253D01*
X052887Y016177D01*
X052887Y016023D01*
X052810Y015946D01*
X052657Y016100D02*
X052657Y016177D01*
X052503Y016407D02*
X052427Y016483D01*
X052427Y016637D01*
X052503Y016714D01*
X052580Y016714D01*
X052887Y016407D01*
X052887Y016714D01*
X052810Y016867D02*
X052887Y016944D01*
X052887Y017097D01*
X052810Y017174D01*
X052734Y017174D01*
X052657Y017097D01*
X052657Y017021D01*
X052657Y017097D02*
X052580Y017174D01*
X052503Y017174D01*
X052427Y017097D01*
X052427Y016944D01*
X052503Y016867D01*
X052580Y017327D02*
X052427Y017481D01*
X052887Y017481D01*
X052887Y017634D02*
X052887Y017327D01*
X053004Y019276D02*
X053157Y019276D01*
X053234Y019352D01*
X053387Y019276D02*
X053694Y019583D01*
X053694Y019659D01*
X053618Y019736D01*
X053464Y019736D01*
X053387Y019659D01*
X053234Y019659D02*
X053157Y019736D01*
X053004Y019736D01*
X052927Y019659D01*
X052927Y019352D01*
X053004Y019276D01*
X053387Y019276D02*
X053694Y019276D01*
X037237Y017893D02*
X037237Y017586D01*
X037237Y017433D02*
X037084Y017279D01*
X037084Y017356D02*
X037084Y017126D01*
X037237Y017126D02*
X036777Y017126D01*
X036777Y017356D01*
X036853Y017433D01*
X037007Y017433D01*
X037084Y017356D01*
X036930Y017586D02*
X036777Y017739D01*
X037237Y017739D01*
X031637Y012045D02*
X031177Y012045D01*
X031407Y011815D01*
X031407Y012122D01*
X031560Y011662D02*
X031637Y011585D01*
X031637Y011432D01*
X031560Y011355D01*
X031253Y011355D01*
X031177Y011432D01*
X031177Y011585D01*
X031253Y011662D01*
X010044Y015002D02*
X009968Y014926D01*
X009814Y014926D01*
X009737Y015002D01*
X009584Y014926D02*
X009431Y015079D01*
X009507Y015079D02*
X009277Y015079D01*
X009277Y014926D02*
X009277Y015386D01*
X009507Y015386D01*
X009584Y015309D01*
X009584Y015156D01*
X009507Y015079D01*
X009737Y015309D02*
X009814Y015386D01*
X009968Y015386D01*
X010044Y015309D01*
X010044Y015233D01*
X009968Y015156D01*
X010044Y015079D01*
X010044Y015002D01*
X009968Y015156D02*
X009891Y015156D01*
X010044Y015926D02*
X009737Y015926D01*
X010044Y016233D01*
X010044Y016309D01*
X009968Y016386D01*
X009814Y016386D01*
X009737Y016309D01*
X009584Y016309D02*
X009507Y016386D01*
X009277Y016386D01*
X009277Y015926D01*
X009277Y016079D02*
X009507Y016079D01*
X009584Y016156D01*
X009584Y016309D01*
X009431Y016079D02*
X009584Y015926D01*
D16*
X032437Y018786D02*
X032437Y019079D01*
X032584Y019226D01*
X032731Y019079D01*
X032731Y018786D01*
X032731Y019006D02*
X032437Y019006D01*
X032897Y018932D02*
X033044Y018786D01*
X033191Y018932D01*
X033191Y019226D01*
X033358Y019226D02*
X033578Y019226D01*
X033651Y019153D01*
X033651Y019006D01*
X033578Y018932D01*
X033358Y018932D01*
X033358Y018786D02*
X033358Y019226D01*
X033505Y018932D02*
X033651Y018786D01*
X033818Y019006D02*
X034112Y019006D01*
X034279Y019226D02*
X034425Y019226D01*
X034352Y019226D02*
X034352Y018786D01*
X034279Y018786D02*
X034425Y018786D01*
X034585Y018859D02*
X034659Y018786D01*
X034806Y018786D01*
X034879Y018859D01*
X034879Y018932D01*
X034806Y019006D01*
X034659Y019006D01*
X034585Y019079D01*
X034585Y019153D01*
X034659Y019226D01*
X034806Y019226D01*
X034879Y019153D01*
X035046Y019226D02*
X035266Y019226D01*
X035339Y019153D01*
X035339Y019006D01*
X035266Y018932D01*
X035046Y018932D01*
X035046Y018786D02*
X035046Y019226D01*
X035506Y019006D02*
X035800Y019006D01*
X035966Y019006D02*
X036187Y019006D01*
X036260Y018932D01*
X036260Y018859D01*
X036187Y018786D01*
X036040Y018786D01*
X035966Y018859D01*
X035966Y019006D01*
X036113Y019153D01*
X036260Y019226D01*
X032897Y019226D02*
X032897Y018932D01*
X032777Y009136D02*
X035537Y009136D01*
X035537Y006516D01*
X035397Y006376D01*
X032777Y006376D01*
X032777Y009136D01*
X035096Y006676D02*
X035098Y006700D01*
X035104Y006723D01*
X035114Y006745D01*
X035127Y006765D01*
X035144Y006782D01*
X035163Y006796D01*
X035184Y006807D01*
X035207Y006814D01*
X035231Y006817D01*
X035255Y006816D01*
X035278Y006811D01*
X035300Y006802D01*
X035321Y006789D01*
X035339Y006774D01*
X035354Y006755D01*
X035365Y006734D01*
X035373Y006712D01*
X035377Y006688D01*
X035377Y006664D01*
X035373Y006640D01*
X035365Y006618D01*
X035354Y006597D01*
X035339Y006578D01*
X035321Y006563D01*
X035300Y006550D01*
X035278Y006541D01*
X035255Y006536D01*
X035231Y006535D01*
X035207Y006538D01*
X035184Y006545D01*
X035163Y006556D01*
X035144Y006570D01*
X035127Y006587D01*
X035114Y006607D01*
X035104Y006629D01*
X035098Y006652D01*
X035096Y006676D01*
X009782Y002569D02*
X009726Y002626D01*
X009612Y002626D01*
X009555Y002569D01*
X009414Y002626D02*
X009187Y002286D01*
X009414Y002286D02*
X009187Y002626D01*
X009555Y002286D02*
X009782Y002513D01*
X009782Y002569D01*
X009782Y002286D02*
X009555Y002286D01*
D17*
X010639Y005881D02*
X010886Y005881D01*
X010948Y005942D01*
X010948Y006066D01*
X010886Y006127D01*
X010886Y006249D02*
X010948Y006311D01*
X010948Y006434D01*
X010886Y006496D01*
X010639Y006496D01*
X010577Y006434D01*
X010577Y006311D01*
X010639Y006249D01*
X010701Y006249D01*
X010762Y006311D01*
X010762Y006496D01*
X010639Y006127D02*
X010577Y006066D01*
X010577Y005942D01*
X010639Y005881D01*
X035726Y005951D02*
X035823Y005951D01*
X035775Y005951D02*
X035775Y006241D01*
X035823Y006241D02*
X035726Y006241D01*
X035923Y006193D02*
X035923Y005999D01*
X035971Y005951D01*
X036068Y005951D01*
X036116Y005999D01*
X036217Y005999D02*
X036266Y005951D01*
X036363Y005951D01*
X036411Y005999D01*
X036411Y006047D01*
X036363Y006096D01*
X036314Y006096D01*
X036363Y006096D02*
X036411Y006144D01*
X036411Y006193D01*
X036363Y006241D01*
X036266Y006241D01*
X036217Y006193D01*
X036116Y006193D02*
X036068Y006241D01*
X035971Y006241D01*
X035923Y006193D01*
D18*
X030032Y004396D02*
X029857Y004221D01*
X029915Y004162D02*
X029682Y004396D01*
X029682Y004162D02*
X030032Y004162D01*
X030032Y004028D02*
X030032Y003794D01*
X029682Y003794D01*
X029740Y003659D02*
X029799Y003659D01*
X029857Y003601D01*
X029857Y003426D01*
X029857Y003601D02*
X029915Y003659D01*
X029974Y003659D01*
X030032Y003601D01*
X030032Y003426D01*
X029682Y003426D01*
X029682Y003601D01*
X029740Y003659D01*
X009017Y003521D02*
X007797Y003521D01*
X007797Y005490D01*
X009017Y005490D01*
X009017Y003521D01*
X008796Y005640D02*
X008646Y005640D01*
X008571Y005715D01*
X008411Y005715D02*
X008336Y005640D01*
X008186Y005640D01*
X008111Y005715D01*
X008111Y006015D01*
X008186Y006090D01*
X008336Y006090D01*
X008411Y006015D01*
X008411Y005715D01*
X008411Y005640D02*
X008261Y005790D01*
X008571Y006015D02*
X008646Y006090D01*
X008796Y006090D01*
X008871Y006015D01*
X008871Y005940D01*
X008796Y005865D01*
X008871Y005790D01*
X008871Y005715D01*
X008796Y005640D01*
X008796Y005865D02*
X008721Y005865D01*
X032432Y015856D02*
X032507Y015781D01*
X032582Y015781D01*
X032657Y015856D01*
X032657Y016231D01*
X032582Y016231D02*
X032732Y016231D01*
X032892Y016231D02*
X033118Y016231D01*
X033193Y016156D01*
X033193Y016006D01*
X033118Y015931D01*
X032892Y015931D01*
X032892Y015781D02*
X032892Y016231D01*
X033353Y016081D02*
X033503Y016231D01*
X033503Y015781D01*
X033353Y015781D02*
X033653Y015781D01*
X012391Y017395D02*
X010423Y017395D01*
X010423Y018616D01*
X012391Y018616D01*
X012391Y017395D01*
X011871Y017640D02*
X011571Y017640D01*
X011871Y017940D01*
X011871Y018015D01*
X011796Y018090D01*
X011646Y018090D01*
X011571Y018015D01*
X011411Y018015D02*
X011411Y017715D01*
X011336Y017640D01*
X011186Y017640D01*
X011111Y017715D01*
X011111Y018015D01*
X011186Y018090D01*
X011336Y018090D01*
X011411Y018015D01*
X011261Y017790D02*
X011411Y017640D01*
X009391Y017395D02*
X009391Y018616D01*
X007423Y018616D01*
X007423Y017395D01*
X009391Y017395D01*
X008871Y017890D02*
X008571Y017890D01*
X008721Y017890D02*
X008721Y018340D01*
X008571Y018190D01*
X008411Y018265D02*
X008411Y017965D01*
X008336Y017890D01*
X008186Y017890D01*
X008111Y017965D01*
X008111Y018265D01*
X008186Y018340D01*
X008336Y018340D01*
X008411Y018265D01*
X008261Y018040D02*
X008411Y017890D01*
D19*
X007341Y016736D03*
X012474Y019275D03*
X007137Y005572D03*
D20*
X008092Y005195D03*
X007718Y017691D03*
X012096Y018321D03*
D21*
X012363Y005599D02*
X012328Y005582D01*
X012329Y005583D02*
X012303Y005630D01*
X012275Y005676D01*
X012243Y005719D01*
X012208Y005760D01*
X012170Y005799D01*
X012130Y005834D01*
X012087Y005867D01*
X012042Y005896D01*
X011995Y005922D01*
X011946Y005945D01*
X011895Y005964D01*
X011844Y005979D01*
X011791Y005991D01*
X011738Y005999D01*
X011684Y006003D01*
X011630Y006003D01*
X011576Y005999D01*
X011523Y005991D01*
X011470Y005979D01*
X011419Y005964D01*
X011368Y005945D01*
X011319Y005922D01*
X011272Y005896D01*
X011227Y005867D01*
X011184Y005834D01*
X011144Y005799D01*
X011106Y005760D01*
X011071Y005719D01*
X011039Y005676D01*
X011011Y005630D01*
X010985Y005583D01*
X010951Y005599D01*
X010950Y005600D01*
X010976Y005648D01*
X011005Y005695D01*
X011037Y005739D01*
X011072Y005782D01*
X011111Y005821D01*
X011151Y005858D01*
X011195Y005892D01*
X011240Y005922D01*
X011288Y005950D01*
X011337Y005974D01*
X011388Y005995D01*
X011440Y006011D01*
X011493Y006025D01*
X011548Y006034D01*
X011602Y006040D01*
X011657Y006042D01*
X011712Y006040D01*
X011766Y006034D01*
X011821Y006025D01*
X011874Y006011D01*
X011926Y005995D01*
X011977Y005974D01*
X012026Y005950D01*
X012074Y005922D01*
X012119Y005892D01*
X012163Y005858D01*
X012203Y005821D01*
X012242Y005782D01*
X012277Y005739D01*
X012309Y005695D01*
X012338Y005648D01*
X012364Y005600D01*
X012363Y005599D01*
X012337Y005648D01*
X012308Y005694D01*
X012276Y005739D01*
X012241Y005781D01*
X012203Y005820D01*
X012162Y005857D01*
X012119Y005891D01*
X012073Y005922D01*
X012026Y005949D01*
X011977Y005973D01*
X011926Y005994D01*
X011874Y006011D01*
X011820Y006024D01*
X011766Y006033D01*
X011712Y006039D01*
X011657Y006041D01*
X011602Y006039D01*
X011548Y006033D01*
X011494Y006024D01*
X011440Y006011D01*
X011388Y005994D01*
X011337Y005973D01*
X011288Y005949D01*
X011241Y005922D01*
X011195Y005891D01*
X011152Y005857D01*
X011111Y005820D01*
X011073Y005781D01*
X011038Y005739D01*
X011006Y005694D01*
X010977Y005648D01*
X010951Y005599D01*
X010952Y005599D01*
X010979Y005649D01*
X011009Y005697D01*
X011042Y005742D01*
X011079Y005785D01*
X011118Y005826D01*
X011161Y005863D01*
X011206Y005897D01*
X011253Y005928D01*
X011303Y005955D01*
X011354Y005979D01*
X011407Y005999D01*
X011461Y006015D01*
X011516Y006027D01*
X011572Y006035D01*
X011629Y006039D01*
X011685Y006039D01*
X011742Y006035D01*
X011798Y006027D01*
X011853Y006015D01*
X011907Y005999D01*
X011960Y005979D01*
X012011Y005955D01*
X012061Y005928D01*
X012108Y005897D01*
X012153Y005863D01*
X012196Y005826D01*
X012235Y005785D01*
X012272Y005742D01*
X012305Y005697D01*
X012335Y005649D01*
X012362Y005599D01*
X012361Y005599D01*
X012335Y005648D01*
X012305Y005696D01*
X012271Y005742D01*
X012235Y005785D01*
X012195Y005825D01*
X012153Y005862D01*
X012108Y005896D01*
X012060Y005927D01*
X012011Y005955D01*
X011960Y005978D01*
X011907Y005998D01*
X011853Y006014D01*
X011797Y006026D01*
X011742Y006034D01*
X011685Y006038D01*
X011629Y006038D01*
X011572Y006034D01*
X011517Y006026D01*
X011461Y006014D01*
X011407Y005998D01*
X011354Y005978D01*
X011303Y005955D01*
X011254Y005927D01*
X011206Y005896D01*
X011161Y005862D01*
X011119Y005825D01*
X011079Y005785D01*
X011043Y005742D01*
X011009Y005696D01*
X010979Y005648D01*
X010953Y005599D01*
X010954Y005598D01*
X010980Y005648D01*
X011010Y005696D01*
X011044Y005741D01*
X011080Y005784D01*
X011120Y005824D01*
X011162Y005861D01*
X011207Y005896D01*
X011254Y005926D01*
X011304Y005954D01*
X011355Y005977D01*
X011408Y005997D01*
X011462Y006013D01*
X011517Y006025D01*
X011573Y006033D01*
X011629Y006037D01*
X011685Y006037D01*
X011741Y006033D01*
X011797Y006025D01*
X011852Y006013D01*
X011906Y005997D01*
X011959Y005977D01*
X012010Y005954D01*
X012060Y005926D01*
X012107Y005896D01*
X012152Y005861D01*
X012194Y005824D01*
X012234Y005784D01*
X012270Y005741D01*
X012304Y005696D01*
X012334Y005648D01*
X012360Y005598D01*
X012359Y005598D01*
X012333Y005647D01*
X012303Y005695D01*
X012270Y005740D01*
X012233Y005783D01*
X012194Y005824D01*
X012151Y005861D01*
X012106Y005895D01*
X012059Y005925D01*
X012010Y005953D01*
X011959Y005976D01*
X011906Y005996D01*
X011852Y006012D01*
X011797Y006024D01*
X011741Y006032D01*
X011685Y006036D01*
X011629Y006036D01*
X011573Y006032D01*
X011517Y006024D01*
X011462Y006012D01*
X011408Y005996D01*
X011355Y005976D01*
X011304Y005953D01*
X011255Y005925D01*
X011208Y005895D01*
X011163Y005861D01*
X011120Y005824D01*
X011081Y005783D01*
X011044Y005740D01*
X011011Y005695D01*
X010981Y005647D01*
X010955Y005598D01*
X010956Y005597D01*
X010982Y005647D01*
X011012Y005695D01*
X011045Y005740D01*
X011082Y005783D01*
X011121Y005823D01*
X011163Y005860D01*
X011208Y005894D01*
X011255Y005925D01*
X011305Y005952D01*
X011356Y005975D01*
X011408Y005995D01*
X011462Y006011D01*
X011517Y006023D01*
X011573Y006031D01*
X011629Y006035D01*
X011685Y006035D01*
X011741Y006031D01*
X011797Y006023D01*
X011852Y006011D01*
X011906Y005995D01*
X011958Y005975D01*
X012009Y005952D01*
X012059Y005925D01*
X012106Y005894D01*
X012151Y005860D01*
X012193Y005823D01*
X012232Y005783D01*
X012269Y005740D01*
X012302Y005695D01*
X012332Y005647D01*
X012358Y005597D01*
X012357Y005597D01*
X012331Y005646D01*
X012301Y005694D01*
X012268Y005739D01*
X012232Y005782D01*
X012192Y005822D01*
X012150Y005859D01*
X012105Y005893D01*
X012058Y005924D01*
X012009Y005951D01*
X011958Y005975D01*
X011905Y005994D01*
X011852Y006010D01*
X011797Y006022D01*
X011741Y006030D01*
X011685Y006034D01*
X011629Y006034D01*
X011573Y006030D01*
X011517Y006022D01*
X011462Y006010D01*
X011409Y005994D01*
X011356Y005975D01*
X011305Y005951D01*
X011256Y005924D01*
X011209Y005893D01*
X011164Y005859D01*
X011122Y005822D01*
X011082Y005782D01*
X011046Y005739D01*
X011013Y005694D01*
X010983Y005646D01*
X010957Y005597D01*
X010957Y005596D01*
X010984Y005646D01*
X011014Y005693D01*
X011047Y005739D01*
X011083Y005781D01*
X011123Y005821D01*
X011165Y005858D01*
X011209Y005892D01*
X011256Y005923D01*
X011305Y005950D01*
X011356Y005974D01*
X011409Y005993D01*
X011463Y006009D01*
X011517Y006021D01*
X011573Y006029D01*
X011629Y006033D01*
X011685Y006033D01*
X011741Y006029D01*
X011797Y006021D01*
X011851Y006009D01*
X011905Y005993D01*
X011958Y005974D01*
X012009Y005950D01*
X012058Y005923D01*
X012105Y005892D01*
X012149Y005858D01*
X012191Y005821D01*
X012231Y005781D01*
X012267Y005739D01*
X012300Y005693D01*
X012330Y005646D01*
X012357Y005596D01*
X012356Y005596D01*
X012329Y005645D01*
X012300Y005693D01*
X012266Y005738D01*
X012230Y005781D01*
X012191Y005821D01*
X012149Y005858D01*
X012104Y005891D01*
X012057Y005922D01*
X012008Y005949D01*
X011957Y005973D01*
X011905Y005992D01*
X011851Y006008D01*
X011796Y006020D01*
X011741Y006028D01*
X011685Y006032D01*
X011629Y006032D01*
X011573Y006028D01*
X011518Y006020D01*
X011463Y006008D01*
X011409Y005992D01*
X011357Y005973D01*
X011306Y005949D01*
X011257Y005922D01*
X011210Y005891D01*
X011165Y005858D01*
X011123Y005821D01*
X011084Y005781D01*
X011048Y005738D01*
X011014Y005693D01*
X010985Y005645D01*
X010958Y005596D01*
X010959Y005595D01*
X010985Y005645D01*
X011015Y005692D01*
X011048Y005737D01*
X011085Y005780D01*
X011124Y005820D01*
X011166Y005857D01*
X011210Y005891D01*
X011257Y005921D01*
X011306Y005948D01*
X011357Y005972D01*
X011410Y005991D01*
X011463Y006007D01*
X011518Y006019D01*
X011573Y006027D01*
X011629Y006031D01*
X011685Y006031D01*
X011741Y006027D01*
X011796Y006019D01*
X011851Y006007D01*
X011904Y005991D01*
X011957Y005972D01*
X012008Y005948D01*
X012057Y005921D01*
X012104Y005891D01*
X012148Y005857D01*
X012190Y005820D01*
X012229Y005780D01*
X012266Y005737D01*
X012299Y005692D01*
X012329Y005645D01*
X012355Y005595D01*
X012354Y005595D01*
X012328Y005644D01*
X012298Y005692D01*
X012265Y005737D01*
X012229Y005779D01*
X012189Y005819D01*
X012147Y005856D01*
X012103Y005890D01*
X012056Y005920D01*
X012007Y005947D01*
X011956Y005971D01*
X011904Y005991D01*
X011851Y006006D01*
X011796Y006018D01*
X011741Y006026D01*
X011685Y006030D01*
X011629Y006030D01*
X011573Y006026D01*
X011518Y006018D01*
X011463Y006006D01*
X011410Y005991D01*
X011358Y005971D01*
X011307Y005947D01*
X011258Y005920D01*
X011211Y005890D01*
X011167Y005856D01*
X011125Y005819D01*
X011085Y005779D01*
X011049Y005737D01*
X011016Y005692D01*
X010986Y005644D01*
X010960Y005595D01*
X010961Y005595D01*
X010987Y005644D01*
X011017Y005691D01*
X011050Y005736D01*
X011086Y005779D01*
X011125Y005818D01*
X011167Y005855D01*
X011212Y005889D01*
X011258Y005919D01*
X011307Y005946D01*
X011358Y005970D01*
X011410Y005990D01*
X011464Y006005D01*
X011518Y006017D01*
X011573Y006025D01*
X011629Y006029D01*
X011685Y006029D01*
X011741Y006025D01*
X011796Y006017D01*
X011850Y006005D01*
X011904Y005990D01*
X011956Y005970D01*
X012007Y005946D01*
X012056Y005919D01*
X012102Y005889D01*
X012147Y005855D01*
X012189Y005818D01*
X012228Y005779D01*
X012264Y005736D01*
X012297Y005691D01*
X012327Y005644D01*
X012353Y005595D01*
X012352Y005594D01*
X012326Y005643D01*
X012296Y005691D01*
X012263Y005736D01*
X012227Y005778D01*
X012188Y005818D01*
X012146Y005855D01*
X012102Y005888D01*
X012055Y005919D01*
X012006Y005946D01*
X011956Y005969D01*
X011904Y005989D01*
X011850Y006004D01*
X011796Y006016D01*
X011740Y006024D01*
X011685Y006028D01*
X011629Y006028D01*
X011574Y006024D01*
X011518Y006016D01*
X011464Y006004D01*
X011410Y005989D01*
X011358Y005969D01*
X011308Y005946D01*
X011259Y005919D01*
X011212Y005888D01*
X011168Y005855D01*
X011126Y005818D01*
X011087Y005778D01*
X011051Y005736D01*
X011018Y005691D01*
X010988Y005643D01*
X010962Y005594D01*
X010963Y005594D01*
X010989Y005643D01*
X011019Y005690D01*
X011052Y005735D01*
X011088Y005777D01*
X011127Y005817D01*
X011168Y005854D01*
X011213Y005887D01*
X011259Y005918D01*
X011308Y005945D01*
X011359Y005968D01*
X011411Y005988D01*
X011464Y006004D01*
X011519Y006015D01*
X011574Y006023D01*
X011629Y006027D01*
X011685Y006027D01*
X011740Y006023D01*
X011795Y006015D01*
X011850Y006004D01*
X011903Y005988D01*
X011955Y005968D01*
X012006Y005945D01*
X012055Y005918D01*
X012101Y005887D01*
X012146Y005854D01*
X012187Y005817D01*
X012226Y005777D01*
X012262Y005735D01*
X012295Y005690D01*
X012325Y005643D01*
X012351Y005594D01*
X012350Y005593D01*
X012324Y005642D01*
X012295Y005689D01*
X012262Y005734D01*
X012226Y005777D01*
X012187Y005816D01*
X012145Y005853D01*
X012101Y005887D01*
X012054Y005917D01*
X012005Y005944D01*
X011955Y005967D01*
X011903Y005987D01*
X011850Y006003D01*
X011795Y006014D01*
X011740Y006022D01*
X011685Y006026D01*
X011629Y006026D01*
X011574Y006022D01*
X011519Y006014D01*
X011464Y006003D01*
X011411Y005987D01*
X011359Y005967D01*
X011309Y005944D01*
X011260Y005917D01*
X011213Y005887D01*
X011169Y005853D01*
X011127Y005816D01*
X011088Y005777D01*
X011052Y005734D01*
X011019Y005689D01*
X010990Y005642D01*
X010964Y005593D01*
X010965Y005593D01*
X010991Y005642D01*
X011020Y005689D01*
X011053Y005734D01*
X011089Y005776D01*
X011128Y005816D01*
X011170Y005852D01*
X011214Y005886D01*
X011260Y005916D01*
X011309Y005943D01*
X011359Y005966D01*
X011411Y005986D01*
X011465Y006002D01*
X011519Y006014D01*
X011574Y006021D01*
X011629Y006025D01*
X011685Y006025D01*
X011740Y006021D01*
X011795Y006014D01*
X011849Y006002D01*
X011903Y005986D01*
X011955Y005966D01*
X012005Y005943D01*
X012054Y005916D01*
X012100Y005886D01*
X012144Y005852D01*
X012186Y005816D01*
X012225Y005776D01*
X012261Y005734D01*
X012294Y005689D01*
X012323Y005642D01*
X012349Y005593D01*
X012349Y005592D01*
X012322Y005641D01*
X012293Y005688D01*
X012260Y005733D01*
X012224Y005775D01*
X012185Y005815D01*
X012144Y005851D01*
X012099Y005885D01*
X012053Y005915D01*
X012004Y005942D01*
X011954Y005965D01*
X011902Y005985D01*
X011849Y006001D01*
X011795Y006013D01*
X011740Y006021D01*
X011685Y006024D01*
X011629Y006024D01*
X011574Y006021D01*
X011519Y006013D01*
X011465Y006001D01*
X011412Y005985D01*
X011360Y005965D01*
X011310Y005942D01*
X011261Y005915D01*
X011215Y005885D01*
X011170Y005851D01*
X011129Y005815D01*
X011090Y005775D01*
X011054Y005733D01*
X011021Y005688D01*
X010992Y005641D01*
X010965Y005592D01*
X010966Y005592D01*
X010992Y005641D01*
X011022Y005688D01*
X011055Y005732D01*
X011091Y005775D01*
X011129Y005814D01*
X011171Y005851D01*
X011215Y005884D01*
X011262Y005914D01*
X011310Y005941D01*
X011360Y005964D01*
X011412Y005984D01*
X011465Y006000D01*
X011519Y006012D01*
X011574Y006020D01*
X011629Y006024D01*
X011685Y006024D01*
X011740Y006020D01*
X011795Y006012D01*
X011849Y006000D01*
X011902Y005984D01*
X011954Y005964D01*
X012004Y005941D01*
X012052Y005914D01*
X012099Y005884D01*
X012143Y005851D01*
X012185Y005814D01*
X012223Y005775D01*
X012259Y005732D01*
X012292Y005688D01*
X012322Y005641D01*
X012348Y005592D01*
X012347Y005592D01*
X012321Y005640D01*
X012291Y005687D01*
X012259Y005732D01*
X012223Y005774D01*
X012184Y005813D01*
X012142Y005850D01*
X012098Y005883D01*
X012052Y005913D01*
X012004Y005940D01*
X011953Y005963D01*
X011902Y005983D01*
X011849Y005999D01*
X011795Y006011D01*
X011740Y006019D01*
X011685Y006023D01*
X011629Y006023D01*
X011574Y006019D01*
X011519Y006011D01*
X011465Y005999D01*
X011412Y005983D01*
X011361Y005963D01*
X011310Y005940D01*
X011262Y005913D01*
X011216Y005883D01*
X011172Y005850D01*
X011130Y005813D01*
X011091Y005774D01*
X011055Y005732D01*
X011023Y005687D01*
X010993Y005640D01*
X010967Y005592D01*
X010968Y005591D01*
X010994Y005640D01*
X011024Y005687D01*
X011056Y005731D01*
X011092Y005773D01*
X011131Y005813D01*
X011172Y005849D01*
X011216Y005882D01*
X011263Y005913D01*
X011311Y005939D01*
X011361Y005963D01*
X011413Y005982D01*
X011466Y005998D01*
X011520Y006010D01*
X011574Y006018D01*
X011629Y006022D01*
X011685Y006022D01*
X011740Y006018D01*
X011794Y006010D01*
X011848Y005998D01*
X011901Y005982D01*
X011953Y005963D01*
X012003Y005939D01*
X012051Y005913D01*
X012098Y005882D01*
X012142Y005849D01*
X012183Y005813D01*
X012222Y005773D01*
X012258Y005731D01*
X012290Y005687D01*
X012320Y005640D01*
X012346Y005591D01*
X012345Y005591D01*
X012319Y005639D01*
X012290Y005686D01*
X012257Y005731D01*
X012221Y005773D01*
X012183Y005812D01*
X012141Y005848D01*
X012097Y005882D01*
X012051Y005912D01*
X012003Y005938D01*
X011953Y005962D01*
X011901Y005981D01*
X011848Y005997D01*
X011794Y006009D01*
X011740Y006017D01*
X011685Y006021D01*
X011629Y006021D01*
X011574Y006017D01*
X011520Y006009D01*
X011466Y005997D01*
X011413Y005981D01*
X011361Y005962D01*
X011311Y005938D01*
X011263Y005912D01*
X011217Y005882D01*
X011173Y005848D01*
X011131Y005812D01*
X011093Y005773D01*
X011057Y005731D01*
X011024Y005686D01*
X010995Y005639D01*
X010969Y005591D01*
X010970Y005590D01*
X010996Y005639D01*
X011025Y005686D01*
X011058Y005730D01*
X011093Y005772D01*
X011132Y005811D01*
X011174Y005848D01*
X011217Y005881D01*
X011264Y005911D01*
X011312Y005938D01*
X011362Y005961D01*
X011413Y005980D01*
X011466Y005996D01*
X011520Y006008D01*
X011575Y006016D01*
X011629Y006020D01*
X011685Y006020D01*
X011739Y006016D01*
X011794Y006008D01*
X011848Y005996D01*
X011901Y005980D01*
X011952Y005961D01*
X012002Y005938D01*
X012050Y005911D01*
X012097Y005881D01*
X012140Y005848D01*
X012182Y005811D01*
X012221Y005772D01*
X012256Y005730D01*
X012289Y005686D01*
X012318Y005639D01*
X012344Y005590D01*
X012343Y005590D01*
X012317Y005638D01*
X012288Y005685D01*
X012255Y005729D01*
X012220Y005771D01*
X012181Y005810D01*
X012140Y005847D01*
X012096Y005880D01*
X012050Y005910D01*
X012002Y005937D01*
X011952Y005960D01*
X011900Y005979D01*
X011848Y005995D01*
X011794Y006007D01*
X011739Y006015D01*
X011685Y006019D01*
X011629Y006019D01*
X011575Y006015D01*
X011520Y006007D01*
X011466Y005995D01*
X011414Y005979D01*
X011362Y005960D01*
X011312Y005937D01*
X011264Y005910D01*
X011218Y005880D01*
X011174Y005847D01*
X011133Y005810D01*
X011094Y005771D01*
X011059Y005729D01*
X011026Y005685D01*
X010997Y005638D01*
X010971Y005590D01*
X010972Y005589D01*
X010998Y005638D01*
X011027Y005684D01*
X011059Y005729D01*
X011095Y005771D01*
X011134Y005810D01*
X011175Y005846D01*
X011219Y005879D01*
X011265Y005909D01*
X011313Y005936D01*
X011363Y005959D01*
X011414Y005978D01*
X011467Y005994D01*
X011520Y006006D01*
X011575Y006014D01*
X011630Y006018D01*
X011684Y006018D01*
X011739Y006014D01*
X011794Y006006D01*
X011847Y005994D01*
X011900Y005978D01*
X011951Y005959D01*
X012001Y005936D01*
X012049Y005909D01*
X012095Y005879D01*
X012139Y005846D01*
X012180Y005810D01*
X012219Y005771D01*
X012255Y005729D01*
X012287Y005684D01*
X012316Y005638D01*
X012342Y005589D01*
X012341Y005589D01*
X012316Y005637D01*
X012286Y005684D01*
X012254Y005728D01*
X012218Y005770D01*
X012180Y005809D01*
X012139Y005845D01*
X012095Y005878D01*
X012049Y005908D01*
X012001Y005935D01*
X011951Y005958D01*
X011900Y005977D01*
X011847Y005993D01*
X011793Y006005D01*
X011739Y006013D01*
X011684Y006017D01*
X011630Y006017D01*
X011575Y006013D01*
X011521Y006005D01*
X011467Y005993D01*
X011414Y005977D01*
X011363Y005958D01*
X011313Y005935D01*
X011265Y005908D01*
X011219Y005878D01*
X011175Y005845D01*
X011134Y005809D01*
X011096Y005770D01*
X011060Y005728D01*
X011028Y005684D01*
X010998Y005637D01*
X010973Y005589D01*
X010974Y005588D01*
X010999Y005637D01*
X011028Y005683D01*
X011061Y005727D01*
X011096Y005769D01*
X011135Y005808D01*
X011176Y005844D01*
X011220Y005878D01*
X011266Y005907D01*
X011314Y005934D01*
X011363Y005957D01*
X011415Y005976D01*
X011467Y005992D01*
X011521Y006004D01*
X011575Y006012D01*
X011630Y006016D01*
X011684Y006016D01*
X011739Y006012D01*
X011793Y006004D01*
X011847Y005992D01*
X011899Y005976D01*
X011951Y005957D01*
X012000Y005934D01*
X012048Y005907D01*
X012094Y005878D01*
X012138Y005844D01*
X012179Y005808D01*
X012218Y005769D01*
X012253Y005727D01*
X012286Y005683D01*
X012315Y005637D01*
X012340Y005588D01*
X012314Y005636D01*
X012285Y005683D01*
X012252Y005727D01*
X012217Y005769D01*
X012178Y005808D01*
X012137Y005844D01*
X012094Y005877D01*
X012048Y005907D01*
X012000Y005933D01*
X011950Y005956D01*
X011899Y005975D01*
X011847Y005991D01*
X011793Y006003D01*
X011739Y006011D01*
X011684Y006015D01*
X011630Y006015D01*
X011575Y006011D01*
X011521Y006003D01*
X011467Y005991D01*
X011415Y005975D01*
X011364Y005956D01*
X011314Y005933D01*
X011266Y005907D01*
X011220Y005877D01*
X011177Y005844D01*
X011136Y005808D01*
X011097Y005769D01*
X011062Y005727D01*
X011029Y005683D01*
X011000Y005636D01*
X010974Y005588D01*
X010975Y005588D01*
X011001Y005636D01*
X011030Y005682D01*
X011062Y005726D01*
X011098Y005768D01*
X011136Y005807D01*
X011177Y005843D01*
X011221Y005876D01*
X011267Y005906D01*
X011315Y005932D01*
X011364Y005955D01*
X011415Y005974D01*
X011468Y005990D01*
X011521Y006002D01*
X011575Y006010D01*
X011630Y006014D01*
X011684Y006014D01*
X011739Y006010D01*
X011793Y006002D01*
X011846Y005990D01*
X011899Y005974D01*
X011950Y005955D01*
X011999Y005932D01*
X012047Y005906D01*
X012093Y005876D01*
X012137Y005843D01*
X012178Y005807D01*
X012216Y005768D01*
X012252Y005726D01*
X012284Y005682D01*
X012313Y005636D01*
X012339Y005588D01*
X012338Y005587D01*
X012312Y005635D01*
X012283Y005682D01*
X012251Y005726D01*
X012215Y005767D01*
X012177Y005806D01*
X012136Y005842D01*
X012093Y005875D01*
X012047Y005905D01*
X011999Y005931D01*
X011949Y005954D01*
X011898Y005973D01*
X011846Y005989D01*
X011793Y006001D01*
X011739Y006009D01*
X011684Y006013D01*
X011630Y006013D01*
X011575Y006009D01*
X011521Y006001D01*
X011468Y005989D01*
X011416Y005973D01*
X011365Y005954D01*
X011315Y005931D01*
X011267Y005905D01*
X011221Y005875D01*
X011178Y005842D01*
X011137Y005806D01*
X011099Y005767D01*
X011063Y005726D01*
X011031Y005682D01*
X011002Y005635D01*
X010976Y005587D01*
X010977Y005587D01*
X011003Y005635D01*
X011032Y005681D01*
X011064Y005725D01*
X011099Y005767D01*
X011138Y005805D01*
X011179Y005841D01*
X011222Y005874D01*
X011268Y005904D01*
X011315Y005930D01*
X011365Y005953D01*
X011416Y005973D01*
X011468Y005988D01*
X011521Y006000D01*
X011575Y006008D01*
X011630Y006012D01*
X011684Y006012D01*
X011739Y006008D01*
X011793Y006000D01*
X011846Y005988D01*
X011898Y005973D01*
X011949Y005953D01*
X011999Y005930D01*
X012046Y005904D01*
X012092Y005874D01*
X012135Y005841D01*
X012176Y005805D01*
X012215Y005767D01*
X012250Y005725D01*
X012282Y005681D01*
X012311Y005635D01*
X012337Y005587D01*
X012336Y005586D01*
X012310Y005634D01*
X012281Y005680D01*
X012249Y005724D01*
X012214Y005766D01*
X012176Y005805D01*
X012135Y005841D01*
X012091Y005873D01*
X012046Y005903D01*
X011998Y005930D01*
X011949Y005952D01*
X011898Y005972D01*
X011846Y005987D01*
X011792Y005999D01*
X011739Y006007D01*
X011684Y006011D01*
X011630Y006011D01*
X011575Y006007D01*
X011522Y005999D01*
X011468Y005987D01*
X011416Y005972D01*
X011365Y005952D01*
X011316Y005930D01*
X011268Y005903D01*
X011223Y005873D01*
X011179Y005841D01*
X011138Y005805D01*
X011100Y005766D01*
X011065Y005724D01*
X011033Y005680D01*
X011004Y005634D01*
X010978Y005586D01*
X010979Y005586D01*
X011005Y005634D01*
X011033Y005680D01*
X011066Y005724D01*
X011101Y005765D01*
X011139Y005804D01*
X011180Y005840D01*
X011223Y005873D01*
X011269Y005902D01*
X011316Y005929D01*
X011366Y005951D01*
X011417Y005971D01*
X011469Y005986D01*
X011522Y005998D01*
X011576Y006006D01*
X011630Y006010D01*
X011684Y006010D01*
X011738Y006006D01*
X011792Y005998D01*
X011845Y005986D01*
X011897Y005971D01*
X011948Y005951D01*
X011998Y005929D01*
X012045Y005902D01*
X012091Y005873D01*
X012134Y005840D01*
X012175Y005804D01*
X012213Y005765D01*
X012248Y005724D01*
X012281Y005680D01*
X012309Y005634D01*
X012335Y005586D01*
X012334Y005585D01*
X012309Y005633D01*
X012280Y005679D01*
X012248Y005723D01*
X012212Y005764D01*
X012174Y005803D01*
X012134Y005839D01*
X012090Y005872D01*
X012045Y005901D01*
X011997Y005928D01*
X011948Y005951D01*
X011897Y005970D01*
X011845Y005985D01*
X011792Y005997D01*
X011738Y006005D01*
X011684Y006009D01*
X011630Y006009D01*
X011576Y006005D01*
X011522Y005997D01*
X011469Y005985D01*
X011417Y005970D01*
X011366Y005951D01*
X011317Y005928D01*
X011269Y005901D01*
X011224Y005872D01*
X011180Y005839D01*
X011140Y005803D01*
X011102Y005764D01*
X011066Y005723D01*
X011034Y005679D01*
X011005Y005633D01*
X010980Y005585D01*
X010981Y005585D01*
X011006Y005633D01*
X011035Y005679D01*
X011067Y005723D01*
X011102Y005764D01*
X011140Y005802D01*
X011181Y005838D01*
X011224Y005871D01*
X011270Y005901D01*
X011317Y005927D01*
X011366Y005950D01*
X011417Y005969D01*
X011469Y005984D01*
X011522Y005996D01*
X011576Y006004D01*
X011630Y006008D01*
X011684Y006008D01*
X011738Y006004D01*
X011792Y005996D01*
X011845Y005984D01*
X011897Y005969D01*
X011948Y005950D01*
X011997Y005927D01*
X012044Y005901D01*
X012090Y005871D01*
X012133Y005838D01*
X012174Y005802D01*
X012212Y005764D01*
X012247Y005723D01*
X012279Y005679D01*
X012308Y005633D01*
X012333Y005585D01*
X012332Y005585D01*
X012307Y005632D01*
X012278Y005678D01*
X012246Y005722D01*
X012211Y005763D01*
X012173Y005802D01*
X012132Y005837D01*
X012089Y005870D01*
X012044Y005900D01*
X011996Y005926D01*
X011947Y005949D01*
X011896Y005968D01*
X011845Y005983D01*
X011792Y005995D01*
X011738Y006003D01*
X011684Y006007D01*
X011630Y006007D01*
X011576Y006003D01*
X011522Y005995D01*
X011469Y005983D01*
X011418Y005968D01*
X011367Y005949D01*
X011318Y005926D01*
X011270Y005900D01*
X011225Y005870D01*
X011182Y005837D01*
X011141Y005802D01*
X011103Y005763D01*
X011068Y005722D01*
X011036Y005678D01*
X011007Y005632D01*
X010982Y005585D01*
X010983Y005584D01*
X011008Y005632D01*
X011037Y005678D01*
X011069Y005721D01*
X011104Y005762D01*
X011142Y005801D01*
X011182Y005837D01*
X011225Y005869D01*
X011271Y005899D01*
X011318Y005925D01*
X011367Y005948D01*
X011418Y005967D01*
X011470Y005982D01*
X011522Y005994D01*
X011576Y006002D01*
X011630Y006006D01*
X011684Y006006D01*
X011738Y006002D01*
X011792Y005994D01*
X011844Y005982D01*
X011896Y005967D01*
X011947Y005948D01*
X011996Y005925D01*
X012043Y005899D01*
X012089Y005869D01*
X012132Y005837D01*
X012172Y005801D01*
X012210Y005762D01*
X012245Y005721D01*
X012277Y005678D01*
X012306Y005632D01*
X012331Y005584D01*
X012305Y005631D01*
X012276Y005677D01*
X012244Y005721D01*
X012209Y005762D01*
X012172Y005800D01*
X012131Y005836D01*
X012088Y005869D01*
X012043Y005898D01*
X011995Y005924D01*
X011946Y005947D01*
X011896Y005966D01*
X011844Y005981D01*
X011791Y005993D01*
X011738Y006001D01*
X011684Y006005D01*
X011630Y006005D01*
X011576Y006001D01*
X011523Y005993D01*
X011470Y005981D01*
X011418Y005966D01*
X011368Y005947D01*
X011319Y005924D01*
X011271Y005898D01*
X011226Y005869D01*
X011183Y005836D01*
X011142Y005800D01*
X011105Y005762D01*
X011070Y005721D01*
X011038Y005677D01*
X011009Y005631D01*
X010983Y005584D01*
X010984Y005583D01*
X011010Y005631D01*
X011038Y005677D01*
X011070Y005720D01*
X011105Y005761D01*
X011143Y005800D01*
X011184Y005835D01*
X011227Y005868D01*
X011272Y005897D01*
X011319Y005923D01*
X011368Y005946D01*
X011418Y005965D01*
X011470Y005980D01*
X011523Y005992D01*
X011576Y006000D01*
X011630Y006004D01*
X011684Y006004D01*
X011738Y006000D01*
X011791Y005992D01*
X011844Y005980D01*
X011896Y005965D01*
X011946Y005946D01*
X011995Y005923D01*
X012042Y005897D01*
X012087Y005868D01*
X012130Y005835D01*
X012171Y005800D01*
X012209Y005761D01*
X012244Y005720D01*
X012276Y005677D01*
X012304Y005631D01*
X012330Y005583D01*
X010951Y004913D02*
X010986Y004930D01*
X010985Y004929D02*
X011011Y004882D01*
X011039Y004836D01*
X011071Y004793D01*
X011106Y004752D01*
X011144Y004713D01*
X011184Y004678D01*
X011227Y004645D01*
X011272Y004616D01*
X011319Y004590D01*
X011368Y004567D01*
X011419Y004548D01*
X011470Y004533D01*
X011523Y004521D01*
X011576Y004513D01*
X011630Y004509D01*
X011684Y004509D01*
X011738Y004513D01*
X011791Y004521D01*
X011844Y004533D01*
X011895Y004548D01*
X011946Y004567D01*
X011995Y004590D01*
X012042Y004616D01*
X012087Y004645D01*
X012130Y004678D01*
X012170Y004713D01*
X012208Y004752D01*
X012243Y004793D01*
X012275Y004836D01*
X012303Y004882D01*
X012329Y004929D01*
X012363Y004913D01*
X012364Y004912D01*
X012338Y004864D01*
X012309Y004817D01*
X012277Y004773D01*
X012242Y004730D01*
X012203Y004691D01*
X012163Y004654D01*
X012119Y004620D01*
X012074Y004590D01*
X012026Y004562D01*
X011977Y004538D01*
X011926Y004517D01*
X011874Y004501D01*
X011821Y004487D01*
X011766Y004478D01*
X011712Y004472D01*
X011657Y004470D01*
X011602Y004472D01*
X011548Y004478D01*
X011493Y004487D01*
X011440Y004501D01*
X011388Y004517D01*
X011337Y004538D01*
X011288Y004562D01*
X011240Y004590D01*
X011195Y004620D01*
X011151Y004654D01*
X011111Y004691D01*
X011072Y004730D01*
X011037Y004773D01*
X011005Y004817D01*
X010976Y004864D01*
X010950Y004912D01*
X010951Y004913D01*
X010977Y004864D01*
X011006Y004818D01*
X011038Y004773D01*
X011073Y004731D01*
X011111Y004692D01*
X011152Y004655D01*
X011195Y004621D01*
X011241Y004590D01*
X011288Y004563D01*
X011337Y004539D01*
X011388Y004518D01*
X011440Y004501D01*
X011494Y004488D01*
X011548Y004479D01*
X011602Y004473D01*
X011657Y004471D01*
X011712Y004473D01*
X011766Y004479D01*
X011820Y004488D01*
X011874Y004501D01*
X011926Y004518D01*
X011977Y004539D01*
X012026Y004563D01*
X012073Y004590D01*
X012119Y004621D01*
X012162Y004655D01*
X012203Y004692D01*
X012241Y004731D01*
X012276Y004773D01*
X012308Y004818D01*
X012337Y004864D01*
X012363Y004913D01*
X012362Y004913D01*
X012335Y004863D01*
X012305Y004815D01*
X012272Y004770D01*
X012235Y004727D01*
X012196Y004686D01*
X012153Y004649D01*
X012108Y004615D01*
X012061Y004584D01*
X012011Y004557D01*
X011960Y004533D01*
X011907Y004513D01*
X011853Y004497D01*
X011798Y004485D01*
X011742Y004477D01*
X011685Y004473D01*
X011629Y004473D01*
X011572Y004477D01*
X011516Y004485D01*
X011461Y004497D01*
X011407Y004513D01*
X011354Y004533D01*
X011303Y004557D01*
X011253Y004584D01*
X011206Y004615D01*
X011161Y004649D01*
X011118Y004686D01*
X011079Y004727D01*
X011042Y004770D01*
X011009Y004815D01*
X010979Y004863D01*
X010952Y004913D01*
X010953Y004913D01*
X010979Y004864D01*
X011009Y004816D01*
X011043Y004770D01*
X011079Y004727D01*
X011119Y004687D01*
X011161Y004650D01*
X011206Y004616D01*
X011254Y004585D01*
X011303Y004557D01*
X011354Y004534D01*
X011407Y004514D01*
X011461Y004498D01*
X011517Y004486D01*
X011572Y004478D01*
X011629Y004474D01*
X011685Y004474D01*
X011742Y004478D01*
X011797Y004486D01*
X011853Y004498D01*
X011907Y004514D01*
X011960Y004534D01*
X012011Y004557D01*
X012060Y004585D01*
X012108Y004616D01*
X012153Y004650D01*
X012195Y004687D01*
X012235Y004727D01*
X012271Y004770D01*
X012305Y004816D01*
X012335Y004864D01*
X012361Y004913D01*
X012360Y004914D01*
X012334Y004864D01*
X012304Y004816D01*
X012270Y004771D01*
X012234Y004728D01*
X012194Y004688D01*
X012152Y004651D01*
X012107Y004616D01*
X012060Y004586D01*
X012010Y004558D01*
X011959Y004535D01*
X011906Y004515D01*
X011852Y004499D01*
X011797Y004487D01*
X011741Y004479D01*
X011685Y004475D01*
X011629Y004475D01*
X011573Y004479D01*
X011517Y004487D01*
X011462Y004499D01*
X011408Y004515D01*
X011355Y004535D01*
X011304Y004558D01*
X011254Y004586D01*
X011207Y004616D01*
X011162Y004651D01*
X011120Y004688D01*
X011080Y004728D01*
X011044Y004771D01*
X011010Y004816D01*
X010980Y004864D01*
X010954Y004914D01*
X010955Y004914D01*
X010981Y004865D01*
X011011Y004817D01*
X011044Y004772D01*
X011081Y004729D01*
X011120Y004688D01*
X011163Y004651D01*
X011208Y004617D01*
X011255Y004587D01*
X011304Y004559D01*
X011355Y004536D01*
X011408Y004516D01*
X011462Y004500D01*
X011517Y004488D01*
X011573Y004480D01*
X011629Y004476D01*
X011685Y004476D01*
X011741Y004480D01*
X011797Y004488D01*
X011852Y004500D01*
X011906Y004516D01*
X011959Y004536D01*
X012010Y004559D01*
X012059Y004587D01*
X012106Y004617D01*
X012151Y004651D01*
X012194Y004688D01*
X012233Y004729D01*
X012270Y004772D01*
X012303Y004817D01*
X012333Y004865D01*
X012359Y004914D01*
X012358Y004915D01*
X012332Y004865D01*
X012302Y004817D01*
X012269Y004772D01*
X012232Y004729D01*
X012193Y004689D01*
X012151Y004652D01*
X012106Y004618D01*
X012059Y004587D01*
X012009Y004560D01*
X011958Y004537D01*
X011906Y004517D01*
X011852Y004501D01*
X011797Y004489D01*
X011741Y004481D01*
X011685Y004477D01*
X011629Y004477D01*
X011573Y004481D01*
X011517Y004489D01*
X011462Y004501D01*
X011408Y004517D01*
X011356Y004537D01*
X011305Y004560D01*
X011255Y004587D01*
X011208Y004618D01*
X011163Y004652D01*
X011121Y004689D01*
X011082Y004729D01*
X011045Y004772D01*
X011012Y004817D01*
X010982Y004865D01*
X010956Y004915D01*
X010957Y004915D01*
X010983Y004866D01*
X011013Y004818D01*
X011046Y004773D01*
X011082Y004730D01*
X011122Y004690D01*
X011164Y004653D01*
X011209Y004619D01*
X011256Y004588D01*
X011305Y004561D01*
X011356Y004537D01*
X011409Y004518D01*
X011462Y004502D01*
X011517Y004490D01*
X011573Y004482D01*
X011629Y004478D01*
X011685Y004478D01*
X011741Y004482D01*
X011797Y004490D01*
X011852Y004502D01*
X011905Y004518D01*
X011958Y004537D01*
X012009Y004561D01*
X012058Y004588D01*
X012105Y004619D01*
X012150Y004653D01*
X012192Y004690D01*
X012232Y004730D01*
X012268Y004773D01*
X012301Y004818D01*
X012331Y004866D01*
X012357Y004915D01*
X012357Y004916D01*
X012330Y004866D01*
X012300Y004819D01*
X012267Y004773D01*
X012231Y004731D01*
X012191Y004691D01*
X012149Y004654D01*
X012105Y004620D01*
X012058Y004589D01*
X012009Y004562D01*
X011958Y004538D01*
X011905Y004519D01*
X011851Y004503D01*
X011797Y004491D01*
X011741Y004483D01*
X011685Y004479D01*
X011629Y004479D01*
X011573Y004483D01*
X011517Y004491D01*
X011463Y004503D01*
X011409Y004519D01*
X011356Y004538D01*
X011305Y004562D01*
X011256Y004589D01*
X011209Y004620D01*
X011165Y004654D01*
X011123Y004691D01*
X011083Y004731D01*
X011047Y004773D01*
X011014Y004819D01*
X010984Y004866D01*
X010957Y004916D01*
X010958Y004916D01*
X010985Y004867D01*
X011014Y004819D01*
X011048Y004774D01*
X011084Y004731D01*
X011123Y004691D01*
X011165Y004654D01*
X011210Y004621D01*
X011257Y004590D01*
X011306Y004563D01*
X011357Y004539D01*
X011409Y004520D01*
X011463Y004504D01*
X011518Y004492D01*
X011573Y004484D01*
X011629Y004480D01*
X011685Y004480D01*
X011741Y004484D01*
X011796Y004492D01*
X011851Y004504D01*
X011905Y004520D01*
X011957Y004539D01*
X012008Y004563D01*
X012057Y004590D01*
X012104Y004621D01*
X012149Y004654D01*
X012191Y004691D01*
X012230Y004731D01*
X012266Y004774D01*
X012300Y004819D01*
X012329Y004867D01*
X012356Y004916D01*
X012355Y004917D01*
X012329Y004867D01*
X012299Y004820D01*
X012266Y004775D01*
X012229Y004732D01*
X012190Y004692D01*
X012148Y004655D01*
X012104Y004621D01*
X012057Y004591D01*
X012008Y004564D01*
X011957Y004540D01*
X011904Y004521D01*
X011851Y004505D01*
X011796Y004493D01*
X011741Y004485D01*
X011685Y004481D01*
X011629Y004481D01*
X011573Y004485D01*
X011518Y004493D01*
X011463Y004505D01*
X011410Y004521D01*
X011357Y004540D01*
X011306Y004564D01*
X011257Y004591D01*
X011210Y004621D01*
X011166Y004655D01*
X011124Y004692D01*
X011085Y004732D01*
X011048Y004775D01*
X011015Y004820D01*
X010985Y004867D01*
X010959Y004917D01*
X010960Y004917D01*
X010986Y004868D01*
X011016Y004820D01*
X011049Y004775D01*
X011085Y004733D01*
X011125Y004693D01*
X011167Y004656D01*
X011211Y004622D01*
X011258Y004592D01*
X011307Y004565D01*
X011358Y004541D01*
X011410Y004521D01*
X011463Y004506D01*
X011518Y004494D01*
X011573Y004486D01*
X011629Y004482D01*
X011685Y004482D01*
X011741Y004486D01*
X011796Y004494D01*
X011851Y004506D01*
X011904Y004521D01*
X011956Y004541D01*
X012007Y004565D01*
X012056Y004592D01*
X012103Y004622D01*
X012147Y004656D01*
X012189Y004693D01*
X012229Y004733D01*
X012265Y004775D01*
X012298Y004820D01*
X012328Y004868D01*
X012354Y004917D01*
X012353Y004917D01*
X012327Y004868D01*
X012297Y004821D01*
X012264Y004776D01*
X012228Y004733D01*
X012189Y004694D01*
X012147Y004657D01*
X012102Y004623D01*
X012056Y004593D01*
X012007Y004566D01*
X011956Y004542D01*
X011904Y004522D01*
X011850Y004507D01*
X011796Y004495D01*
X011741Y004487D01*
X011685Y004483D01*
X011629Y004483D01*
X011573Y004487D01*
X011518Y004495D01*
X011464Y004507D01*
X011410Y004522D01*
X011358Y004542D01*
X011307Y004566D01*
X011258Y004593D01*
X011212Y004623D01*
X011167Y004657D01*
X011125Y004694D01*
X011086Y004733D01*
X011050Y004776D01*
X011017Y004821D01*
X010987Y004868D01*
X010961Y004917D01*
X010962Y004918D01*
X010988Y004869D01*
X011018Y004821D01*
X011051Y004776D01*
X011087Y004734D01*
X011126Y004694D01*
X011168Y004657D01*
X011212Y004624D01*
X011259Y004593D01*
X011308Y004566D01*
X011358Y004543D01*
X011410Y004523D01*
X011464Y004508D01*
X011518Y004496D01*
X011574Y004488D01*
X011629Y004484D01*
X011685Y004484D01*
X011740Y004488D01*
X011796Y004496D01*
X011850Y004508D01*
X011904Y004523D01*
X011956Y004543D01*
X012006Y004566D01*
X012055Y004593D01*
X012102Y004624D01*
X012146Y004657D01*
X012188Y004694D01*
X012227Y004734D01*
X012263Y004776D01*
X012296Y004821D01*
X012326Y004869D01*
X012352Y004918D01*
X012351Y004918D01*
X012325Y004869D01*
X012295Y004822D01*
X012262Y004777D01*
X012226Y004735D01*
X012187Y004695D01*
X012146Y004658D01*
X012101Y004625D01*
X012055Y004594D01*
X012006Y004567D01*
X011955Y004544D01*
X011903Y004524D01*
X011850Y004508D01*
X011795Y004497D01*
X011740Y004489D01*
X011685Y004485D01*
X011629Y004485D01*
X011574Y004489D01*
X011519Y004497D01*
X011464Y004508D01*
X011411Y004524D01*
X011359Y004544D01*
X011308Y004567D01*
X011259Y004594D01*
X011213Y004625D01*
X011168Y004658D01*
X011127Y004695D01*
X011088Y004735D01*
X011052Y004777D01*
X011019Y004822D01*
X010989Y004869D01*
X010963Y004918D01*
X010964Y004919D01*
X010990Y004870D01*
X011019Y004823D01*
X011052Y004778D01*
X011088Y004735D01*
X011127Y004696D01*
X011169Y004659D01*
X011213Y004625D01*
X011260Y004595D01*
X011309Y004568D01*
X011359Y004545D01*
X011411Y004525D01*
X011464Y004509D01*
X011519Y004498D01*
X011574Y004490D01*
X011629Y004486D01*
X011685Y004486D01*
X011740Y004490D01*
X011795Y004498D01*
X011850Y004509D01*
X011903Y004525D01*
X011955Y004545D01*
X012005Y004568D01*
X012054Y004595D01*
X012101Y004625D01*
X012145Y004659D01*
X012187Y004696D01*
X012226Y004735D01*
X012262Y004778D01*
X012295Y004823D01*
X012324Y004870D01*
X012350Y004919D01*
X012349Y004919D01*
X012323Y004870D01*
X012294Y004823D01*
X012261Y004778D01*
X012225Y004736D01*
X012186Y004696D01*
X012144Y004660D01*
X012100Y004626D01*
X012054Y004596D01*
X012005Y004569D01*
X011955Y004546D01*
X011903Y004526D01*
X011849Y004510D01*
X011795Y004498D01*
X011740Y004491D01*
X011685Y004487D01*
X011629Y004487D01*
X011574Y004491D01*
X011519Y004498D01*
X011465Y004510D01*
X011411Y004526D01*
X011359Y004546D01*
X011309Y004569D01*
X011260Y004596D01*
X011214Y004626D01*
X011170Y004660D01*
X011128Y004696D01*
X011089Y004736D01*
X011053Y004778D01*
X011020Y004823D01*
X010991Y004870D01*
X010965Y004919D01*
X010965Y004920D01*
X010992Y004871D01*
X011021Y004824D01*
X011054Y004779D01*
X011090Y004737D01*
X011129Y004697D01*
X011170Y004661D01*
X011215Y004627D01*
X011261Y004597D01*
X011310Y004570D01*
X011360Y004547D01*
X011412Y004527D01*
X011465Y004511D01*
X011519Y004499D01*
X011574Y004491D01*
X011629Y004488D01*
X011685Y004488D01*
X011740Y004491D01*
X011795Y004499D01*
X011849Y004511D01*
X011902Y004527D01*
X011954Y004547D01*
X012004Y004570D01*
X012053Y004597D01*
X012099Y004627D01*
X012144Y004661D01*
X012185Y004697D01*
X012224Y004737D01*
X012260Y004779D01*
X012293Y004824D01*
X012322Y004871D01*
X012349Y004920D01*
X012348Y004920D01*
X012322Y004871D01*
X012292Y004824D01*
X012259Y004780D01*
X012223Y004737D01*
X012185Y004698D01*
X012143Y004661D01*
X012099Y004628D01*
X012052Y004598D01*
X012004Y004571D01*
X011954Y004548D01*
X011902Y004528D01*
X011849Y004512D01*
X011795Y004500D01*
X011740Y004492D01*
X011685Y004488D01*
X011629Y004488D01*
X011574Y004492D01*
X011519Y004500D01*
X011465Y004512D01*
X011412Y004528D01*
X011360Y004548D01*
X011310Y004571D01*
X011262Y004598D01*
X011215Y004628D01*
X011171Y004661D01*
X011129Y004698D01*
X011091Y004737D01*
X011055Y004780D01*
X011022Y004824D01*
X010992Y004871D01*
X010966Y004920D01*
X010967Y004920D01*
X010993Y004872D01*
X011023Y004825D01*
X011055Y004780D01*
X011091Y004738D01*
X011130Y004699D01*
X011172Y004662D01*
X011216Y004629D01*
X011262Y004599D01*
X011310Y004572D01*
X011361Y004549D01*
X011412Y004529D01*
X011465Y004513D01*
X011519Y004501D01*
X011574Y004493D01*
X011629Y004489D01*
X011685Y004489D01*
X011740Y004493D01*
X011795Y004501D01*
X011849Y004513D01*
X011902Y004529D01*
X011953Y004549D01*
X012004Y004572D01*
X012052Y004599D01*
X012098Y004629D01*
X012142Y004662D01*
X012184Y004699D01*
X012223Y004738D01*
X012259Y004780D01*
X012291Y004825D01*
X012321Y004872D01*
X012347Y004920D01*
X012346Y004921D01*
X012320Y004872D01*
X012290Y004825D01*
X012258Y004781D01*
X012222Y004739D01*
X012183Y004699D01*
X012142Y004663D01*
X012098Y004630D01*
X012051Y004599D01*
X012003Y004573D01*
X011953Y004549D01*
X011901Y004530D01*
X011848Y004514D01*
X011794Y004502D01*
X011740Y004494D01*
X011685Y004490D01*
X011629Y004490D01*
X011574Y004494D01*
X011520Y004502D01*
X011466Y004514D01*
X011413Y004530D01*
X011361Y004549D01*
X011311Y004573D01*
X011263Y004599D01*
X011216Y004630D01*
X011172Y004663D01*
X011131Y004699D01*
X011092Y004739D01*
X011056Y004781D01*
X011024Y004825D01*
X010994Y004872D01*
X010968Y004921D01*
X010969Y004921D01*
X010995Y004873D01*
X011024Y004826D01*
X011057Y004781D01*
X011093Y004739D01*
X011131Y004700D01*
X011173Y004664D01*
X011217Y004630D01*
X011263Y004600D01*
X011311Y004574D01*
X011361Y004550D01*
X011413Y004531D01*
X011466Y004515D01*
X011520Y004503D01*
X011574Y004495D01*
X011629Y004491D01*
X011685Y004491D01*
X011740Y004495D01*
X011794Y004503D01*
X011848Y004515D01*
X011901Y004531D01*
X011953Y004550D01*
X012003Y004574D01*
X012051Y004600D01*
X012097Y004630D01*
X012141Y004664D01*
X012183Y004700D01*
X012221Y004739D01*
X012257Y004781D01*
X012290Y004826D01*
X012319Y004873D01*
X012345Y004921D01*
X012344Y004922D01*
X012318Y004873D01*
X012289Y004826D01*
X012256Y004782D01*
X012221Y004740D01*
X012182Y004701D01*
X012140Y004664D01*
X012097Y004631D01*
X012050Y004601D01*
X012002Y004574D01*
X011952Y004551D01*
X011901Y004532D01*
X011848Y004516D01*
X011794Y004504D01*
X011739Y004496D01*
X011685Y004492D01*
X011629Y004492D01*
X011575Y004496D01*
X011520Y004504D01*
X011466Y004516D01*
X011413Y004532D01*
X011362Y004551D01*
X011312Y004574D01*
X011264Y004601D01*
X011217Y004631D01*
X011174Y004664D01*
X011132Y004701D01*
X011093Y004740D01*
X011058Y004782D01*
X011025Y004826D01*
X010996Y004873D01*
X010970Y004922D01*
X010971Y004922D01*
X010997Y004874D01*
X011026Y004827D01*
X011059Y004783D01*
X011094Y004741D01*
X011133Y004702D01*
X011174Y004665D01*
X011218Y004632D01*
X011264Y004602D01*
X011312Y004575D01*
X011362Y004552D01*
X011414Y004533D01*
X011466Y004517D01*
X011520Y004505D01*
X011575Y004497D01*
X011629Y004493D01*
X011685Y004493D01*
X011739Y004497D01*
X011794Y004505D01*
X011848Y004517D01*
X011900Y004533D01*
X011952Y004552D01*
X012002Y004575D01*
X012050Y004602D01*
X012096Y004632D01*
X012140Y004665D01*
X012181Y004702D01*
X012220Y004741D01*
X012255Y004783D01*
X012288Y004827D01*
X012317Y004874D01*
X012343Y004922D01*
X012342Y004923D01*
X012316Y004874D01*
X012287Y004828D01*
X012255Y004783D01*
X012219Y004741D01*
X012180Y004702D01*
X012139Y004666D01*
X012095Y004633D01*
X012049Y004603D01*
X012001Y004576D01*
X011951Y004553D01*
X011900Y004534D01*
X011847Y004518D01*
X011794Y004506D01*
X011739Y004498D01*
X011684Y004494D01*
X011630Y004494D01*
X011575Y004498D01*
X011520Y004506D01*
X011467Y004518D01*
X011414Y004534D01*
X011363Y004553D01*
X011313Y004576D01*
X011265Y004603D01*
X011219Y004633D01*
X011175Y004666D01*
X011134Y004702D01*
X011095Y004741D01*
X011059Y004783D01*
X011027Y004828D01*
X010998Y004874D01*
X010972Y004923D01*
X010973Y004923D01*
X010998Y004875D01*
X011028Y004828D01*
X011060Y004784D01*
X011096Y004742D01*
X011134Y004703D01*
X011175Y004667D01*
X011219Y004634D01*
X011265Y004604D01*
X011313Y004577D01*
X011363Y004554D01*
X011414Y004535D01*
X011467Y004519D01*
X011521Y004507D01*
X011575Y004499D01*
X011630Y004495D01*
X011684Y004495D01*
X011739Y004499D01*
X011793Y004507D01*
X011847Y004519D01*
X011900Y004535D01*
X011951Y004554D01*
X012001Y004577D01*
X012049Y004604D01*
X012095Y004634D01*
X012139Y004667D01*
X012180Y004703D01*
X012218Y004742D01*
X012254Y004784D01*
X012286Y004828D01*
X012316Y004875D01*
X012341Y004923D01*
X012340Y004924D01*
X012315Y004875D01*
X012286Y004829D01*
X012253Y004785D01*
X012218Y004743D01*
X012179Y004704D01*
X012138Y004668D01*
X012094Y004634D01*
X012048Y004605D01*
X012000Y004578D01*
X011951Y004555D01*
X011899Y004536D01*
X011847Y004520D01*
X011793Y004508D01*
X011739Y004500D01*
X011684Y004496D01*
X011630Y004496D01*
X011575Y004500D01*
X011521Y004508D01*
X011467Y004520D01*
X011415Y004536D01*
X011363Y004555D01*
X011314Y004578D01*
X011266Y004605D01*
X011220Y004634D01*
X011176Y004668D01*
X011135Y004704D01*
X011096Y004743D01*
X011061Y004785D01*
X011028Y004829D01*
X010999Y004875D01*
X010974Y004924D01*
X011000Y004876D01*
X011029Y004829D01*
X011062Y004785D01*
X011097Y004743D01*
X011136Y004704D01*
X011177Y004668D01*
X011220Y004635D01*
X011266Y004605D01*
X011314Y004579D01*
X011364Y004556D01*
X011415Y004537D01*
X011467Y004521D01*
X011521Y004509D01*
X011575Y004501D01*
X011630Y004497D01*
X011684Y004497D01*
X011739Y004501D01*
X011793Y004509D01*
X011847Y004521D01*
X011899Y004537D01*
X011950Y004556D01*
X012000Y004579D01*
X012048Y004605D01*
X012094Y004635D01*
X012137Y004668D01*
X012178Y004704D01*
X012217Y004743D01*
X012252Y004785D01*
X012285Y004829D01*
X012314Y004876D01*
X012340Y004924D01*
X012339Y004924D01*
X012313Y004876D01*
X012284Y004830D01*
X012252Y004786D01*
X012216Y004744D01*
X012178Y004705D01*
X012137Y004669D01*
X012093Y004636D01*
X012047Y004606D01*
X011999Y004580D01*
X011950Y004557D01*
X011899Y004538D01*
X011846Y004522D01*
X011793Y004510D01*
X011739Y004502D01*
X011684Y004498D01*
X011630Y004498D01*
X011575Y004502D01*
X011521Y004510D01*
X011468Y004522D01*
X011415Y004538D01*
X011364Y004557D01*
X011315Y004580D01*
X011267Y004606D01*
X011221Y004636D01*
X011177Y004669D01*
X011136Y004705D01*
X011098Y004744D01*
X011062Y004786D01*
X011030Y004830D01*
X011001Y004876D01*
X010975Y004924D01*
X010976Y004925D01*
X011002Y004877D01*
X011031Y004830D01*
X011063Y004786D01*
X011099Y004745D01*
X011137Y004706D01*
X011178Y004670D01*
X011221Y004637D01*
X011267Y004607D01*
X011315Y004581D01*
X011365Y004558D01*
X011416Y004539D01*
X011468Y004523D01*
X011521Y004511D01*
X011575Y004503D01*
X011630Y004499D01*
X011684Y004499D01*
X011739Y004503D01*
X011793Y004511D01*
X011846Y004523D01*
X011898Y004539D01*
X011949Y004558D01*
X011999Y004581D01*
X012047Y004607D01*
X012093Y004637D01*
X012136Y004670D01*
X012177Y004706D01*
X012215Y004745D01*
X012251Y004786D01*
X012283Y004830D01*
X012312Y004877D01*
X012338Y004925D01*
X012337Y004925D01*
X012311Y004877D01*
X012282Y004831D01*
X012250Y004787D01*
X012215Y004745D01*
X012176Y004707D01*
X012135Y004671D01*
X012092Y004638D01*
X012046Y004608D01*
X011999Y004582D01*
X011949Y004559D01*
X011898Y004539D01*
X011846Y004524D01*
X011793Y004512D01*
X011739Y004504D01*
X011684Y004500D01*
X011630Y004500D01*
X011575Y004504D01*
X011521Y004512D01*
X011468Y004524D01*
X011416Y004539D01*
X011365Y004559D01*
X011315Y004582D01*
X011268Y004608D01*
X011222Y004638D01*
X011179Y004671D01*
X011138Y004707D01*
X011099Y004745D01*
X011064Y004787D01*
X011032Y004831D01*
X011003Y004877D01*
X010977Y004925D01*
X010978Y004926D01*
X011004Y004878D01*
X011033Y004832D01*
X011065Y004788D01*
X011100Y004746D01*
X011138Y004707D01*
X011179Y004671D01*
X011223Y004639D01*
X011268Y004609D01*
X011316Y004582D01*
X011365Y004560D01*
X011416Y004540D01*
X011468Y004525D01*
X011522Y004513D01*
X011575Y004505D01*
X011630Y004501D01*
X011684Y004501D01*
X011739Y004505D01*
X011792Y004513D01*
X011846Y004525D01*
X011898Y004540D01*
X011949Y004560D01*
X011998Y004582D01*
X012046Y004609D01*
X012091Y004639D01*
X012135Y004671D01*
X012176Y004707D01*
X012214Y004746D01*
X012249Y004788D01*
X012281Y004832D01*
X012310Y004878D01*
X012336Y004926D01*
X012335Y004926D01*
X012309Y004878D01*
X012281Y004832D01*
X012248Y004788D01*
X012213Y004747D01*
X012175Y004708D01*
X012134Y004672D01*
X012091Y004639D01*
X012045Y004610D01*
X011998Y004583D01*
X011948Y004561D01*
X011897Y004541D01*
X011845Y004526D01*
X011792Y004514D01*
X011738Y004506D01*
X011684Y004502D01*
X011630Y004502D01*
X011576Y004506D01*
X011522Y004514D01*
X011469Y004526D01*
X011417Y004541D01*
X011366Y004561D01*
X011316Y004583D01*
X011269Y004610D01*
X011223Y004639D01*
X011180Y004672D01*
X011139Y004708D01*
X011101Y004747D01*
X011066Y004788D01*
X011033Y004832D01*
X011005Y004878D01*
X010979Y004926D01*
X010980Y004927D01*
X011005Y004879D01*
X011034Y004833D01*
X011066Y004789D01*
X011102Y004748D01*
X011140Y004709D01*
X011180Y004673D01*
X011224Y004640D01*
X011269Y004611D01*
X011317Y004584D01*
X011366Y004561D01*
X011417Y004542D01*
X011469Y004527D01*
X011522Y004515D01*
X011576Y004507D01*
X011630Y004503D01*
X011684Y004503D01*
X011738Y004507D01*
X011792Y004515D01*
X011845Y004527D01*
X011897Y004542D01*
X011948Y004561D01*
X011997Y004584D01*
X012045Y004611D01*
X012090Y004640D01*
X012134Y004673D01*
X012174Y004709D01*
X012212Y004748D01*
X012248Y004789D01*
X012280Y004833D01*
X012309Y004879D01*
X012334Y004927D01*
X012333Y004927D01*
X012308Y004879D01*
X012279Y004833D01*
X012247Y004789D01*
X012212Y004748D01*
X012174Y004710D01*
X012133Y004674D01*
X012090Y004641D01*
X012044Y004611D01*
X011997Y004585D01*
X011948Y004562D01*
X011897Y004543D01*
X011845Y004528D01*
X011792Y004516D01*
X011738Y004508D01*
X011684Y004504D01*
X011630Y004504D01*
X011576Y004508D01*
X011522Y004516D01*
X011469Y004528D01*
X011417Y004543D01*
X011366Y004562D01*
X011317Y004585D01*
X011270Y004611D01*
X011224Y004641D01*
X011181Y004674D01*
X011140Y004710D01*
X011102Y004748D01*
X011067Y004789D01*
X011035Y004833D01*
X011006Y004879D01*
X010981Y004927D01*
X010982Y004927D01*
X011007Y004880D01*
X011036Y004834D01*
X011068Y004790D01*
X011103Y004749D01*
X011141Y004710D01*
X011182Y004675D01*
X011225Y004642D01*
X011270Y004612D01*
X011318Y004586D01*
X011367Y004563D01*
X011418Y004544D01*
X011469Y004529D01*
X011522Y004517D01*
X011576Y004509D01*
X011630Y004505D01*
X011684Y004505D01*
X011738Y004509D01*
X011792Y004517D01*
X011845Y004529D01*
X011896Y004544D01*
X011947Y004563D01*
X011996Y004586D01*
X012044Y004612D01*
X012089Y004642D01*
X012132Y004675D01*
X012173Y004710D01*
X012211Y004749D01*
X012246Y004790D01*
X012278Y004834D01*
X012307Y004880D01*
X012332Y004927D01*
X012331Y004928D01*
X012306Y004880D01*
X012277Y004834D01*
X012245Y004791D01*
X012210Y004750D01*
X012172Y004711D01*
X012132Y004675D01*
X012089Y004643D01*
X012043Y004613D01*
X011996Y004587D01*
X011947Y004564D01*
X011896Y004545D01*
X011844Y004530D01*
X011792Y004518D01*
X011738Y004510D01*
X011684Y004506D01*
X011630Y004506D01*
X011576Y004510D01*
X011522Y004518D01*
X011470Y004530D01*
X011418Y004545D01*
X011367Y004564D01*
X011318Y004587D01*
X011271Y004613D01*
X011225Y004643D01*
X011182Y004675D01*
X011142Y004711D01*
X011104Y004750D01*
X011069Y004791D01*
X011037Y004834D01*
X011008Y004880D01*
X010983Y004928D01*
X011009Y004881D01*
X011038Y004835D01*
X011070Y004791D01*
X011105Y004750D01*
X011142Y004712D01*
X011183Y004676D01*
X011226Y004643D01*
X011271Y004614D01*
X011319Y004588D01*
X011368Y004565D01*
X011418Y004546D01*
X011470Y004531D01*
X011523Y004519D01*
X011576Y004511D01*
X011630Y004507D01*
X011684Y004507D01*
X011738Y004511D01*
X011791Y004519D01*
X011844Y004531D01*
X011896Y004546D01*
X011946Y004565D01*
X011995Y004588D01*
X012043Y004614D01*
X012088Y004643D01*
X012131Y004676D01*
X012172Y004712D01*
X012209Y004750D01*
X012244Y004791D01*
X012276Y004835D01*
X012305Y004881D01*
X012331Y004928D01*
X012330Y004929D01*
X012304Y004881D01*
X012276Y004835D01*
X012244Y004792D01*
X012209Y004751D01*
X012171Y004712D01*
X012130Y004677D01*
X012087Y004644D01*
X012042Y004615D01*
X011995Y004589D01*
X011946Y004566D01*
X011896Y004547D01*
X011844Y004532D01*
X011791Y004520D01*
X011738Y004512D01*
X011684Y004508D01*
X011630Y004508D01*
X011576Y004512D01*
X011523Y004520D01*
X011470Y004532D01*
X011418Y004547D01*
X011368Y004566D01*
X011319Y004589D01*
X011272Y004615D01*
X011227Y004644D01*
X011184Y004677D01*
X011143Y004712D01*
X011105Y004751D01*
X011070Y004792D01*
X011038Y004835D01*
X011010Y004881D01*
X010984Y004929D01*
M02*
