%
M48
M72
T01C0.0197
T02C0.0236
T03C0.0394
T04C0.0400
T05C0.1181
%
T01
X15157Y3256
X15907Y3256
X16657Y3256
X13407Y4506
X13157Y5006
X15907Y4881
X17657Y5256
X18407Y4756
X14157Y6006
X16657Y6756
X21157Y7006
X21907Y7256
X22657Y7506
X27157Y7756
X27907Y8006
X28657Y8381
X29907Y8756
X28657Y9256
X27907Y9256
X27157Y9256
X24157Y10256
X22657Y9256
X21907Y9256
X21157Y9256
X18407Y10256
X17657Y11006
X12657Y9756
X12157Y9756
X15157Y9256
X15907Y9256
X16657Y9256
X8657Y10506
X8157Y9756
X7657Y9756
X7157Y9756
X6657Y9756
X6157Y9756
X4657Y9256
X3907Y9256
X3157Y9256
X5657Y11256
X6157Y12506
X6657Y12506
X7157Y12506
X7657Y12506
X8157Y12506
X10657Y12006
X11157Y12006
X11657Y12006
X12157Y12506
X12657Y12506
X6157Y15006
X4657Y15256
X3907Y15256
X3157Y15256
X5657Y16006
X10657Y16256
X11157Y16256
X11657Y16256
X15157Y15256
X15907Y15256
X16657Y15256
X21157Y15256
X21907Y15256
X22657Y15256
X27157Y15256
X27907Y15256
X28657Y15256
X32157Y14506
X33657Y14506
X33657Y14006
X35407Y13006
X36657Y13506
X32657Y12506
X32657Y11256
X32157Y11256
X33157Y11256
X33657Y11256
X34157Y11256
X35407Y11256
X37157Y11506
X41907Y10506
X38157Y9506
X39157Y9256
X39907Y9256
X40657Y9256
X39157Y8131
X39907Y7756
X40657Y7506
X36657Y6506
X35157Y7006
X34407Y7006
X33032Y8006
X31907Y9256
X35907Y10006
X30407Y11006
X39157Y15256
X39907Y15256
X40657Y15256
X45157Y15256
X45907Y15256
X46657Y15256
X47407Y15756
X48907Y15756
X48907Y15006
X48157Y14506
X48657Y14256
X49157Y13756
X49657Y13506
X50157Y13256
X50657Y13256
X50657Y12756
X50657Y12006
X53157Y12006
X59907Y10756
X58657Y9256
X57907Y9256
X57157Y9256
X54657Y9756
X54157Y9756
X50157Y9756
X49657Y9756
X49157Y9756
X48657Y9756
X48157Y9756
X46657Y9256
X45907Y9256
X45157Y9256
X45157Y7756
X45907Y7506
X46657Y7256
X47657Y6006
X43907Y5506
X43157Y5006
X41907Y4506
X40657Y3256
X39907Y3256
X39157Y3256
X45157Y3256
X45907Y3256
X46657Y3256
X47657Y4006
X56157Y6006
X58657Y6756
X63157Y7006
X63907Y7256
X64657Y7506
X69157Y7756
X69907Y8006
X70657Y8381
X70657Y9256
X69907Y9256
X69157Y9256
X64657Y9256
X63907Y9256
X63157Y9256
X65907Y10756
X71907Y10756
X70657Y15256
X69907Y15256
X69157Y15256
X64657Y15256
X63907Y15256
X63157Y15256
X58657Y15256
X57907Y15256
X57157Y15256
X59907Y16756
X56157Y18006
X48157Y17256
X47657Y18006
X41907Y17006
X37907Y18006
X34157Y16006
X33157Y15506
X29907Y17256
X29657Y18006
X24157Y19006
X17907Y19006
X12157Y18381
X11657Y18381
X11157Y18381
X9907Y18006
X8657Y17631
X8157Y17631
X7657Y17631
X9907Y19506
X3157Y7256
X3907Y7006
X4657Y6756
X5157Y6006
X6157Y5506
X10157Y5256
X21157Y3256
X21907Y3256
X22657Y3256
X27157Y3256
X27907Y3256
X28657Y3256
X24157Y5006
X29657Y6006
X30157Y6631
X32907Y5506
X34407Y5506
X35157Y5506
X37907Y6006
X57157Y3256
X57907Y3256
X58657Y3256
X63157Y3256
X63907Y3256
X64657Y3256
X69157Y3256
X69907Y3256
X70657Y3256
X71907Y4756
X65907Y4756
X59907Y4756
X57907Y4881
X65907Y16756
X71907Y16756
T02
X6157Y17756
X4657Y3256
X3907Y3256
X3157Y3256
T03
X11407Y3506
X11407Y2506
X31407Y4006
X32407Y4006
X33407Y4006
X34407Y4006
X35407Y4006
X36407Y4006
T04
X34907Y17006
X33907Y17006
X32907Y17006
X32907Y18006
X33907Y18006
X34907Y18006
T05
X1907Y3006
X1907Y19006
X71907Y19006
X71907Y3006
M30
